<svg width="23" height="21" viewBox="0 0 23 21" fill="none" xmlns="http://www.w3.org/2000/svg">
<path d="M11.5005 1.81827C10.244 0.649004 8.59942 5.43306e-05 6.89252 0C5.98907 0.00095197 5.09473 0.182714 4.26096 0.534825C3.42719 0.886936 2.67045 1.40244 2.0343 2.05168C-0.679061 4.80944 -0.677907 9.12287 2.03661 11.869L10.4915 20.4258C10.6875 20.7748 11.0658 21 11.5005 21C11.679 20.9982 11.8546 20.9541 12.0132 20.8712C12.1718 20.7884 12.309 20.669 12.4138 20.5227L20.9644 11.869C23.6789 9.12171 23.6789 4.80944 20.9621 2.04702C20.3263 1.39897 19.5701 0.884508 18.7372 0.533208C17.9042 0.181909 17.0109 0.000699774 16.1085 0C14.4016 0.00028238 12.7571 0.649201 11.5005 1.81827ZM19.3315 3.69723C21.1339 5.53068 21.1351 8.39463 19.3338 10.2187L11.5005 18.1465L3.66716 10.2187C1.86594 8.39463 1.86709 5.53068 3.66485 3.7019C4.54125 2.81961 5.68748 2.33411 6.89252 2.33411C8.09756 2.33411 9.23918 2.81961 10.1087 3.69957L10.6852 4.28309C10.7922 4.39157 10.9193 4.47762 11.0592 4.53634C11.1991 4.59505 11.3491 4.62528 11.5005 4.62528C11.652 4.62528 11.8019 4.59505 11.9418 4.53634C12.0817 4.47762 12.2088 4.39157 12.3158 4.28309L12.8924 3.69957C14.6359 1.93848 17.5903 1.94315 19.3315 3.69723Z" fill="#FF5959"/>
</svg>
