<svg width="55" height="42" viewBox="0 0 55 42" fill="none" xmlns="http://www.w3.org/2000/svg">
<path d="M44.463 15.5051C43.575 15.6743 40.0019 20.3045 40.0019 20.3045L39.8751 20.6217C39.8751 20.6217 46.3236 19.924 46.5773 19.6702C47.1904 18.9303 45.203 15.3571 44.463 15.5051ZM40.0442 20.3891C41.2282 18.9303 43.9133 16.816 44.4842 16.3508C45.0127 16.8583 45.7739 18.3594 45.8796 19.0571C45.1396 19.2051 41.9259 20.1777 40.0442 20.3891Z" fill="#8CB0DD"/>
<path d="M35.8157 16.2874C34.0608 15.188 33.5746 15.188 33.0671 15.4629C32.5597 15.7377 30.678 18.3594 31.5026 19.184C32.3483 20.0086 39.0294 20.5794 39.0294 20.5794L39.1774 20.1777C39.1985 20.1988 37.5705 17.408 35.8157 16.2874ZM32.6654 18.9091C32.2849 18.5286 33.2363 16.964 33.6803 16.6257C33.786 16.5623 38.2894 19.332 38.9237 20.2834C36.4288 20.0086 33.0248 19.2051 32.6654 18.9091Z" fill="#8CB0DD"/>
<path d="M39.0928 21.8056H39.4734C39.8539 21.8056 40.1499 21.5096 40.1499 21.1502V20.0719C40.1499 19.7125 39.8539 19.4165 39.4734 19.4165H39.0928C38.7122 19.4165 38.4162 19.7125 38.4162 20.0719V21.1502C38.4162 21.5096 38.7122 21.8056 39.0928 21.8056Z" fill="#8CB0DD"/>
<path d="M53.3641 20.6428L22.7495 20.5371C21.925 20.5371 21.3118 21.2348 21.4387 22.0171L21.9038 25.0405H23.4472L24.3775 40.2209C24.4198 41.0244 25.1175 41.6586 25.9632 41.6586H50.4041L51.419 24.9771H52.8567L53.3641 20.6428Z" fill="#B85742"/>
<path d="M50.9116 41.6586H32.158L31.1432 20.9388H53.4275L52.4973 40.2209C52.4761 41.0243 51.7784 41.6586 50.9116 41.6586Z" fill="#F79C8D"/>
<path d="M54.3578 24.9771L30.1706 25.0405L29.6209 20.5371L53.3218 20.6217C54.1041 20.6217 54.7172 21.2771 54.6327 22.0171L54.3578 24.9771Z" fill="#F58D80"/>
<path d="M30.1706 25.0405L53.2372 24.9771L30.9106 26.161L30.1706 25.0405Z" fill="#B85742"/>
<path d="M39.8751 20.5793H39.2408V25.0193H39.8751V20.5793Z" fill="#8CB0DD"/>
<path d="M41.9048 24.9982H41.1013V41.6797H41.9048V24.9982Z" fill="#8CB0DD"/>
<path d="M26.3438 10.6212H1.52226V41.6586H26.3438V10.6212Z" fill="#F79C8D"/>
<path d="M5.4548 10.6212H4.54567V41.6586H5.4548V10.6212Z" fill="#F8CC7F"/>
<path d="M8.11878 10.6212H7.20964V41.6586H8.11878V10.6212Z" fill="#F8CC7F"/>
<path d="M10.7616 10.6212H9.85248V41.6586H10.7616V10.6212Z" fill="#F8CC7F"/>
<path d="M13.4256 10.6212H12.5164V41.6586H13.4256V10.6212Z" fill="#F8CC7F"/>
<path d="M16.0684 10.6212H15.1593V41.6586H16.0684V10.6212Z" fill="#F8CC7F"/>
<path d="M18.7324 10.6212H17.8233V41.6586H18.7324V10.6212Z" fill="#F8CC7F"/>
<path d="M21.3752 10.6212H20.4661V41.6586H21.3752V10.6212Z" fill="#F8CC7F"/>
<path d="M24.0392 10.6212H23.1301V41.6586H24.0392V10.6212Z" fill="#F8CC7F"/>
<path d="M26.3438 10.6212H1.52226V11.9109H26.3438V10.6212Z" fill="#F8CC7F"/>
<path d="M18.2673 0.0075496C17.1679 0.282404 13.0662 6.28692 13.0662 6.28692L12.9393 6.68863C12.9393 6.68863 20.9312 5.37779 21.185 5.01836C21.925 4.08808 19.1553 -0.203877 18.2673 0.0075496ZM13.1296 6.41378C14.4827 4.53208 17.6753 1.69896 18.3518 1.08583C19.0284 1.67782 20.1278 3.49609 20.297 4.3418C19.3878 4.57437 15.4553 5.99093 13.1296 6.41378Z" fill="#51C0A5"/>
<path d="M7.54792 1.59326C5.28566 0.345837 4.67252 0.388124 4.05938 0.768692C3.44625 1.14926 1.28969 4.53209 2.41026 5.50465C3.53082 6.45607 11.8822 6.70978 11.8822 6.70978L12.0302 6.20236C12.0513 6.20236 9.83133 2.86182 7.54792 1.59326ZM3.82681 5.06065C3.31939 4.61666 4.39767 2.6081 4.92623 2.16411C5.05309 2.07954 10.8673 5.20865 11.7342 6.35036C8.58391 6.18122 4.3131 5.42008 3.82681 5.06065Z" fill="#51C0A5"/>
<path d="M12.0513 8.23206L12.5164 8.21092C12.9816 8.18977 13.341 7.8092 13.2987 7.34406L13.2142 6.01207C13.193 5.56808 12.7913 5.2298 12.3262 5.25094L11.861 5.27208C11.3959 5.29322 11.0365 5.67379 11.0787 6.13893L11.1633 7.47092C11.1845 7.91492 11.5862 8.2532 12.0513 8.23206Z" fill="#51C0A5"/>
<path d="M27.4009 7.34406H0V10.9595H27.4009V7.34406Z" fill="#FBB03C"/>
</svg>
