<svg width="31" height="30" viewBox="0 0 31 30" fill="none" xmlns="http://www.w3.org/2000/svg">
<g filter="url(#filter0_d_3_143)">
<path d="M26.2566 7.74683L19.3617 6.74311L16.2794 0.484186C16.1953 0.31282 16.0568 0.174096 15.8857 0.089773C15.4566 -0.122394 14.9352 0.0544119 14.7207 0.484186L11.6384 6.74311L4.74349 7.74683C4.5534 7.77403 4.3796 7.86379 4.24654 7.99979C4.08567 8.16541 3.99702 8.38822 4.00008 8.61927C4.00313 8.85032 4.09764 9.0707 4.26283 9.232L9.25142 14.1037L8.07284 20.9828C8.0452 21.1428 8.06288 21.3074 8.12387 21.4579C8.18486 21.6083 8.28673 21.7387 8.41791 21.8341C8.54909 21.9295 8.70435 21.9862 8.86607 21.9978C9.02779 22.0093 9.18951 21.9753 9.33289 21.8995L15.5001 18.6517L21.6672 21.8995C21.8356 21.9892 22.0311 22.0191 22.2185 21.9865C22.691 21.9049 23.0087 21.4561 22.9273 20.9828L21.7487 14.1037L26.7373 9.232C26.8731 9.09871 26.9627 8.92462 26.9898 8.73422C27.0632 8.2582 26.7318 7.81755 26.2566 7.74683Z" fill="#FF5959"/>
</g>
<defs>
<filter id="filter0_d_3_143" x="0" y="0" width="31" height="30" filterUnits="userSpaceOnUse" color-interpolation-filters="sRGB">
<feFlood flood-opacity="0" result="BackgroundImageFix"/>
<feColorMatrix in="SourceAlpha" type="matrix" values="0 0 0 0 0 0 0 0 0 0 0 0 0 0 0 0 0 0 127 0" result="hardAlpha"/>
<feOffset dy="4"/>
<feGaussianBlur stdDeviation="2"/>
<feComposite in2="hardAlpha" operator="out"/>
<feColorMatrix type="matrix" values="0 0 0 0 0 0 0 0 0 0 0 0 0 0 0 0 0 0 0.25 0"/>
<feBlend mode="normal" in2="BackgroundImageFix" result="effect1_dropShadow_3_143"/>
<feBlend mode="normal" in="SourceGraphic" in2="effect1_dropShadow_3_143" result="shape"/>
</filter>
</defs>
</svg>
