<svg width="192" height="117" viewBox="0 0 192 117" fill="none" xmlns="http://www.w3.org/2000/svg">
<path d="M96.6472 0.0369818C102.053 0.406834 116.974 6.87925 121.306 16.1625L120.713 14.905C120.084 13.7955 119.195 12.3531 118.455 11.2805L117.899 10.5408C112.753 4.06837 101.794 0.0369852 96.2029 0C96.351 0.0369852 96.5361 0.0369818 96.6472 0.0369818Z" fill="#FF5959"/>
<path d="M96.2029 55.108C97.2396 55.071 98.6465 54.997 99.6832 54.8861C99.0908 54.9601 97.906 55.108 96.2029 55.108Z" fill="#FF5959"/>
<path d="M96.0548 0.0739748C95.9067 1.10956 98.0542 2.84787 104.756 7.95183C116.863 17.1981 128.007 27.4061 120.01 41.4235L120.676 40.2399C121.232 39.0564 121.898 37.503 122.342 36.2825C122.639 35.2469 123.046 33.8045 123.268 32.7319C124.305 26.9252 122.787 21.9692 118.418 16.6803C111.901 8.80248 96.277 0.0739725 96.1659 0.0369873C96.1659 0.0369873 96.0918 0.0369896 96.0548 0.0739748Z" fill="#FF5959"/>
<path d="M95.1292 0.0739748C89.0942 0.591768 84.7993 3.92044 98.6466 16.9023C108.199 25.8897 115.493 33.3977 114.937 41.6454C114.53 48.1178 106.903 55.071 96.1659 55.108C103.608 55.034 110.235 52.0752 114.456 46.9713C124.083 34.1374 110.531 22.0802 100.609 13.2777C90.7233 4.47522 89.2423 0.0369873 96.1659 0.0369873C95.8697 0.0369873 95.4624 0.0369896 95.1292 0.0739748Z" fill="#FF5959"/>
<path d="M95.7956 0.0369873H95.2403L94.3147 0.0739748C83.6145 0.924635 79.4307 6.84227 79.2826 10.3559C79.1345 14.6462 80.0602 19.2323 93.0928 32.3251C115.197 54.4423 96.9804 55.108 96.1659 55.108C98.0912 55.071 102.867 54.5532 105.607 50.4109C109.902 42.7549 102.571 35.2099 96.0919 28.5896C87.5391 19.7871 82.3557 14.4982 82.3557 8.65455C82.3557 4.43823 87.0948 0.147945 96.1659 0.0739748L95.7956 0.0369873Z" fill="#FF5959"/>
<path d="M76.6909 8.09974C75.6912 9.09835 74.7656 10.1709 73.9511 11.3175C73.84 11.4654 73.7289 11.6133 73.6549 11.7613C65.5465 24.5582 76.765 34.6551 87.6132 44.4562C96.1289 52.1492 96.2399 54.8491 96.2029 55.145C96.6842 55.034 97.4617 54.8121 97.2766 52.9998C96.6102 49.2273 92.5375 44.7891 88.6128 40.9426C75.358 27.9238 66.2499 17.0872 78.8754 6.13953C78.1349 6.76828 77.3944 7.39703 76.6909 8.09974Z" fill="#FF5959"/>
<path d="M68.6195 27.591C68.6195 29.1074 68.7306 30.5868 68.9898 32.0662C69.0638 32.584 69.1749 33.1388 69.286 33.6566C72.8774 46.1576 91.1676 55.108 96.2029 55.145C95.4624 55.108 94.9441 55.071 93.7593 54.5902C93.5001 54.4793 68.2122 41.4235 68.6565 26.7773C68.6195 27.0362 68.6195 27.2951 68.6195 27.591Z" fill="#FF5959"/>
<path d="M76.6909 47.0452C77.6906 48.0438 78.7643 48.9685 79.9121 49.7821C80.2453 50.041 80.5785 50.2629 80.9117 50.4848C87.1319 54.4793 93.1299 55.071 96.2029 55.108C87.1319 54.9231 79.0605 49.6342 75.8394 46.1206C76.0985 46.4534 76.3947 46.7493 76.6909 47.0452Z" fill="#FF5959"/>
<path d="M121.491 16.6063C120.602 14.5722 119.491 12.6859 118.159 10.9476L117.862 10.5778L118.418 11.3175C119.121 12.39 120.047 13.8325 120.676 14.942L121.269 16.1995L121.491 16.6063Z" fill="#FF5959"/>
<path d="M96.2029 55.108C97.6468 55.108 99.0908 54.997 100.498 54.7751C100.239 54.8121 99.9424 54.8491 99.6832 54.886C98.6095 54.997 97.2396 55.108 96.2029 55.108Z" fill="#FF5959"/>
<path d="M122.379 36.2825C121.935 37.503 121.269 39.0564 120.713 40.2399L120.047 41.4234C119.899 41.6823 119.677 42.0522 119.491 42.3111C121.195 39.6481 122.416 36.6523 123.12 33.4716C123.157 33.2497 123.231 32.9538 123.268 32.7319C123.046 33.8045 122.713 35.2469 122.379 36.2825Z" fill="#FF5959"/>
<g opacity="0.8">
<g opacity="0.8">
<path opacity="0.8" d="M95.7215 0.0369818C93.463 0.073967 91.8339 0.44382 90.6491 0.702717L90.1678 0.813673L89.3162 1.03558C83.022 2.88484 76.987 6.9902 73.6548 11.7243C73.7659 11.5764 73.8769 11.4284 73.951 11.2805C74.8025 10.1339 75.6911 9.06137 76.6908 8.06277C77.3943 7.36005 78.0978 6.73131 78.8753 6.10256C84.0587 1.9972 89.2792 0.887643 90.9823 0.517791C92.2042 0.295879 93.7592 0 96.2028 0C96.0547 0.0369852 95.8696 0.0369818 95.7215 0.0369818Z" fill="#FF5959"/>
<path opacity="0.8" d="M94.907 0.110951C92.8706 0.406833 91.0934 1.44242 89.6124 2.36705L89.2792 2.58897L88.6868 2.9958C87.7612 3.66153 66.1388 19.1214 69.2488 33.6196C69.1378 33.1018 69.0267 32.584 68.9526 32.0292C68.7305 30.5868 68.5824 29.0704 68.5824 27.554C68.5824 27.2951 68.5824 27.0362 68.5824 26.7403C69.7672 12.538 87.9093 2.51499 88.6498 2.10816C89.4273 1.70132 90.2789 1.2575 91.5748 0.813674C91.6488 0.776689 91.6488 0.776686 91.6488 0.776686C93.8703 0.0369818 95.1662 0 96.1288 0C95.8326 0.0369852 95.4253 0.0369807 94.907 0.110951Z" fill="#FF5959"/>
<path opacity="0.8" d="M96.0176 1.36846C95.8696 2.99581 95.6474 3.62456 95.1291 5.06698L95.018 5.36286L94.7958 5.91764C89.8345 17.1981 79.0603 24.8171 75.3208 36.8743C74.1731 40.6098 74.2101 45.9726 80.9486 50.5218C80.6154 50.2999 80.2822 50.078 79.9489 49.8191C78.8012 48.9684 77.7274 48.0808 76.7278 47.0822C76.4316 46.7863 76.1354 46.4904 75.8762 46.1945C71.9146 41.6084 71.3222 37.1702 73.8769 30.9197C78.0236 20.6747 86.9096 13.7955 92.7225 4.73411C95.5363 0.221912 95.5363 0.221915 96.2398 0.0739746C96.1287 0.332871 96.1287 0.332871 96.0176 1.36846Z" fill="#FF5959"/>
</g>
</g>
<path d="M154.221 57.9189L149.667 49.7081C114.419 42.9398 96.9434 66.0186 96.9434 66.0186C126.304 46.9342 154.221 57.9189 154.221 57.9189Z" fill="#FF5959"/>
<path d="M95.3143 66.0186C95.3143 66.0186 77.8016 42.9398 42.5911 49.7081L38 57.9189C38 57.9189 65.9166 46.9342 95.3143 66.0186Z" fill="#FF5959"/>
<ellipse cx="128.5" cy="93" rx="10.5" ry="12" fill="#F15B5C"/>
<path d="M3.6 79.08C4.72 78.9467 5.92 78.8533 7.2 78.8C8.50667 78.72 9.88 78.68 11.32 78.68C13.0533 78.68 14.6 78.8933 15.96 79.32C17.32 79.7467 18.4667 80.3333 19.4 81.08C20.3333 81.8267 21.04 82.7333 21.52 83.8C22 84.84 22.24 85.9733 22.24 87.2C22.24 88.6933 21.9467 90.0267 21.36 91.2C20.8 92.3467 20 93.32 18.96 94.12C17.9467 94.92 16.72 95.5333 15.28 95.96C13.84 96.36 12.2533 96.56 10.52 96.56C9.4 96.56 8.36 96.52 7.4 96.44V107H3.6V79.08ZM11 93.4C13.4 93.4 15.24 92.88 16.52 91.84C17.8267 90.7733 18.48 89.3333 18.48 87.52C18.48 85.7867 17.8533 84.4133 16.6 83.4C15.3733 82.3867 13.5867 81.88 11.24 81.88C10.52 81.88 9.84 81.8933 9.2 81.92C8.56 81.9467 7.96 81.9867 7.4 82.04V93.2C7.82667 93.2533 8.33333 93.3067 8.92 93.36C9.53333 93.3867 10.2267 93.4 11 93.4Z" fill="#FF5959"/>
<path d="M26.8422 107V79H30.6422V107H26.8422ZM57.8978 104.76L55.2578 107.48L41.6578 94.12V107H37.8578V79H41.6578V91.76L53.5778 78.88L56.1378 81.24L45.2178 92.6L57.8978 104.76ZM73.3934 101.44C74.3534 102.24 75.4334 102.893 76.6334 103.4C77.8334 103.907 79.2334 104.16 80.8334 104.16C82.7534 104.16 84.2734 103.76 85.3934 102.96C86.5134 102.16 87.0734 101.08 87.0734 99.72C87.0734 99.16 86.9934 98.64 86.8334 98.16C86.6734 97.68 86.3534 97.2267 85.8734 96.8C85.4201 96.3467 84.7668 95.9067 83.9134 95.48C83.0868 95.0267 82.0068 94.5467 80.6734 94.04C79.2334 93.48 78.0068 92.9333 76.9934 92.4C76.0068 91.84 75.2068 91.24 74.5934 90.6C73.9801 89.9333 73.5401 89.2133 73.2734 88.44C73.0068 87.64 72.8734 86.7333 72.8734 85.72C72.8734 84.7333 73.0734 83.8 73.4734 82.92C73.9001 82.04 74.5134 81.28 75.3134 80.64C76.1401 79.9733 77.1401 79.4533 78.3134 79.08C79.5134 78.7067 80.8734 78.52 82.3934 78.52C84.0468 78.52 85.5268 78.6933 86.8334 79.04C88.1401 79.36 89.4334 79.8267 90.7134 80.44L89.3134 83.68C88.4068 83.1467 87.3401 82.7067 86.1134 82.36C84.9134 81.9867 83.6468 81.8 82.3134 81.8C80.5534 81.8 79.1668 82.1467 78.1534 82.84C77.1401 83.5067 76.6334 84.4 76.6334 85.52C76.6334 86.0533 76.7001 86.5333 76.8334 86.96C76.9934 87.36 77.2868 87.76 77.7134 88.16C78.1668 88.5333 78.7801 88.92 79.5534 89.32C80.3534 89.72 81.4068 90.16 82.7134 90.64C84.2601 91.2267 85.5668 91.8267 86.6334 92.44C87.7001 93.0533 88.5534 93.7067 89.1934 94.4C89.8334 95.0933 90.2868 95.84 90.5534 96.64C90.8468 97.44 90.9934 98.32 90.9934 99.28C90.9934 100.587 90.7401 101.747 90.2334 102.76C89.7268 103.773 89.0201 104.64 88.1134 105.36C87.2334 106.053 86.1668 106.587 84.9134 106.96C83.6601 107.307 82.3001 107.48 80.8334 107.48C78.8868 107.48 77.1134 107.227 75.5134 106.72C73.9134 106.187 72.5668 105.493 71.4734 104.64L73.3934 101.44ZM93.4078 79H114.408V82.36H105.808V107H102.008V82.36H93.4078V79ZM115.594 92.96C115.594 90.9067 115.887 89 116.474 87.24C117.087 85.48 117.954 83.96 119.074 82.68C120.22 81.3733 121.607 80.36 123.234 79.64C124.86 78.8933 126.714 78.52 128.794 78.52C130.847 78.52 132.687 78.9067 134.314 79.68C135.967 80.4267 137.354 81.4533 138.474 82.76C139.62 84.0667 140.5 85.6 141.114 87.36C141.727 89.0933 142.034 90.96 142.034 92.96C142.034 94.96 141.727 96.84 141.114 98.6C140.527 100.36 139.66 101.907 138.514 103.24C137.367 104.547 135.98 105.587 134.354 106.36C132.727 107.107 130.874 107.48 128.794 107.48C126.714 107.48 124.86 107.107 123.234 106.36C121.607 105.587 120.22 104.547 119.074 103.24C117.954 101.907 117.087 100.36 116.474 98.6C115.887 96.84 115.594 94.96 115.594 92.96ZM119.474 92.96C119.474 94.4 119.674 95.8 120.074 97.16C120.5 98.52 121.114 99.72 121.914 100.76C122.714 101.8 123.687 102.64 124.834 103.28C126.007 103.893 127.327 104.2 128.794 104.2C130.34 104.2 131.687 103.92 132.834 103.36C134.007 102.773 134.98 101.987 135.754 101C136.554 99.9867 137.154 98.8 137.554 97.44C137.954 96.0533 138.154 94.56 138.154 92.96C138.154 91.52 137.94 90.1333 137.514 88.8C137.087 87.4667 136.474 86.28 135.674 85.24C134.874 84.2 133.887 83.3733 132.714 82.76C131.567 82.12 130.26 81.8 128.794 81.8C127.327 81.8 126.007 82.0933 124.834 82.68C123.687 83.24 122.714 84.0267 121.914 85.04C121.114 86.0267 120.5 87.2 120.074 88.56C119.674 89.92 119.474 91.3867 119.474 92.96ZM163.943 107.48L160.463 99.88C159.583 97.9867 158.477 96.64 157.143 95.84C155.81 95.04 154.103 94.64 152.023 94.64H151.423V107H147.623V79.08C149.063 78.9467 150.41 78.8533 151.663 78.8C152.943 78.72 154.33 78.68 155.823 78.68C157.53 78.68 159.023 78.8667 160.303 79.24C161.583 79.5867 162.65 80.0933 163.503 80.76C164.357 81.4267 164.997 82.2133 165.423 83.12C165.877 84.0267 166.103 85.0267 166.103 86.12C166.103 88.0667 165.517 89.64 164.343 90.84C163.197 92.0133 161.53 92.8933 159.343 93.48C159.877 93.72 160.37 94 160.823 94.32C161.277 94.6133 161.703 94.9867 162.103 95.44C162.503 95.8667 162.89 96.3867 163.263 97C163.663 97.6133 164.063 98.36 164.463 99.24L167.503 105.8L163.943 107.48ZM155.823 81.88C154.917 81.88 154.103 81.8933 153.383 81.92C152.663 81.9467 152.01 81.9867 151.423 82.04V91.44H155.823C157.743 91.44 159.303 91.0133 160.503 90.16C161.703 89.3067 162.303 88.08 162.303 86.48C162.303 85.1467 161.743 84.0533 160.623 83.2C159.503 82.32 157.903 81.88 155.823 81.88ZM179.465 92.84L187.865 78.8L190.865 80.56L181.225 96.36V107H177.425V96.36L167.705 80.56L170.905 78.64L179.465 92.84Z" fill="white"/>
</svg>
