<svg width="35" height="31" viewBox="0 0 35 31" fill="none" xmlns="http://www.w3.org/2000/svg">
<g filter="url(#filter0_d_3_152)">
<path d="M8.82143 0C7.54271 0 6.31636 0.504833 5.41216 1.40344C4.50797 2.30205 4 3.52082 4 4.79164V14.3749C4 15.6458 4.50797 16.8645 5.41216 17.7631C6.31636 18.6617 7.54271 19.1666 8.82143 19.1666H15.6814C15.6083 18.7721 15.5715 18.3717 15.5714 17.9706C15.5714 17.7233 15.5907 17.4838 15.6293 17.2499H8.82143C8.0542 17.2499 7.31839 16.947 6.77587 16.4079C6.23335 15.8687 5.92857 15.1374 5.92857 14.3749V4.79164C5.92857 4.02915 6.23335 3.29789 6.77587 2.75872C7.31839 2.21956 8.0542 1.91666 8.82143 1.91666H26.1786C26.9458 1.91666 27.6816 2.21956 28.2241 2.75872C28.7666 3.29789 29.0714 4.02915 29.0714 4.79164V6.22914H31V4.79164C31 3.52082 30.492 2.30205 29.5878 1.40344C28.6836 0.504833 27.4573 0 26.1786 0H8.82143ZM28.1071 9.58329C28.1071 10.5999 27.7008 11.575 26.9774 12.2939C26.2541 13.0127 25.273 13.4166 24.25 13.4166C23.227 13.4166 22.2459 13.0127 21.5226 12.2939C20.7992 11.575 20.3929 10.5999 20.3929 9.58329C20.3929 8.56663 20.7992 7.59161 21.5226 6.87273C22.2459 6.15384 23.227 5.74997 24.25 5.74997C25.273 5.74997 26.2541 6.15384 26.9774 6.87273C27.7008 7.59161 28.1071 8.56663 28.1071 9.58329ZM17.5 17.9706C17.5 16.6078 18.6475 15.5019 20.0611 15.5019H28.4389C29.8525 15.5019 31 16.6078 31 17.9706C31 20.1728 29.4436 22.0933 27.2239 22.6281L27.0638 22.6664C25.2146 23.1112 23.2854 23.1112 21.4362 22.6664L21.2761 22.6281C19.0583 22.0933 17.5 20.1728 17.5 17.9706ZM9.78571 4.79164C9.78571 4.53748 9.88731 4.29373 10.0681 4.114C10.249 3.93428 10.4943 3.83332 10.75 3.83332H13.6429C14.6658 3.83332 15.6469 4.23718 16.3703 4.95607C17.0936 5.67495 17.5 6.64997 17.5 7.66663C17.5 8.68329 17.0936 9.65831 16.3703 10.3772C15.6469 11.0961 14.6658 11.4999 13.6429 11.4999H11.7143V14.3749C11.7143 14.6291 11.6127 14.8729 11.4319 15.0526C11.251 15.2323 11.0057 15.3333 10.75 15.3333C10.4943 15.3333 10.249 15.2323 10.0681 15.0526C9.88731 14.8729 9.78571 14.6291 9.78571 14.3749V4.79164ZM13.6429 9.58329C14.1543 9.58329 14.6449 9.38136 15.0066 9.02191C15.3682 8.66247 15.5714 8.17496 15.5714 7.66663C15.5714 7.1583 15.3682 6.67079 15.0066 6.31135C14.6449 5.95191 14.1543 5.74997 13.6429 5.74997H11.7143V9.58329H13.6429Z" fill="#FF5959"/>
</g>
<defs>
<filter id="filter0_d_3_152" x="0" y="0" width="35" height="31" filterUnits="userSpaceOnUse" color-interpolation-filters="sRGB">
<feFlood flood-opacity="0" result="BackgroundImageFix"/>
<feColorMatrix in="SourceAlpha" type="matrix" values="0 0 0 0 0 0 0 0 0 0 0 0 0 0 0 0 0 0 127 0" result="hardAlpha"/>
<feOffset dy="4"/>
<feGaussianBlur stdDeviation="2"/>
<feComposite in2="hardAlpha" operator="out"/>
<feColorMatrix type="matrix" values="0 0 0 0 0 0 0 0 0 0 0 0 0 0 0 0 0 0 0.25 0"/>
<feBlend mode="normal" in2="BackgroundImageFix" result="effect1_dropShadow_3_152"/>
<feBlend mode="normal" in="SourceGraphic" in2="effect1_dropShadow_3_152" result="shape"/>
</filter>
</defs>
</svg>
