<svg width="28" height="21" viewBox="0 0 28 21" fill="none" xmlns="http://www.w3.org/2000/svg">
<path d="M3 1.96499e-06C1.346 1.96499e-06 0 1.346 0 3V15C0 16.654 1.346 18 3 18L9.184 17.98C10.174 17.98 11.133 18.29 11.957 18.84L14 20.2L16.043 18.839C16.8639 18.2908 17.8289 17.9985 18.816 17.999H25C26.654 17.999 28 16.653 28 14.999V3C28 1.346 26.654 1.96499e-06 25 1.96499e-06H18.816C17.43 1.96499e-06 16.086 0.408002 14.934 1.176L14 1.799L13.066 1.176C11.917 0.408261 10.5659 -0.00103486 9.184 1.96499e-06H3ZM3 2H9.184C10.174 2 11.133 2.29 11.957 2.84L14 4.2L16.043 2.839C16.864 2.29115 17.829 1.99916 18.816 2H25C25.552 2 26 2.449 26 3V15C26 15.551 25.552 16 25 16H18.816C17.43 16 16.086 16.408 14.934 17.176L14 17.799L13.066 17.176C11.917 16.4083 10.5659 15.999 9.184 16H3C2.448 16 2 15.551 2 15V3C2 2.449 2.448 2 3 2ZM4 6V8H12V6H4ZM16 6V8H24V6H16ZM4 10V12H12V10H4ZM16 10V12H24V10H16Z" fill="#FF5959"/>
</svg>
