<svg width="23" height="22" viewBox="0 0 23 22" fill="none" xmlns="http://www.w3.org/2000/svg">
<path d="M6.92266 9.89956C6.69553 9.89956 6.4735 9.96407 6.28465 10.0849C6.0958 10.2058 5.94861 10.3776 5.86169 10.5786C5.77477 10.7796 5.75203 11.0007 5.79634 11.2141C5.84065 11.4275 5.95003 11.6235 6.11063 11.7773C6.27123 11.9311 6.47586 12.0359 6.69862 12.0783C6.92138 12.1208 7.15229 12.099 7.36212 12.0157C7.57196 11.9325 7.75132 11.7915 7.8775 11.6106C8.00369 11.4297 8.07104 11.2171 8.07104 10.9995C8.07104 10.7078 7.95005 10.428 7.73469 10.2217C7.51932 10.0154 7.22723 9.89956 6.92266 9.89956ZM11.5162 9.89956C11.2891 9.89956 11.067 9.96407 10.8782 10.0849C10.6893 10.2058 10.5421 10.3776 10.4552 10.5786C10.3683 10.7796 10.3456 11.0007 10.3899 11.2141C10.4342 11.4275 10.5436 11.6235 10.7042 11.7773C10.8648 11.9311 11.0694 12.0359 11.2921 12.0783C11.5149 12.1208 11.7458 12.099 11.9557 12.0157C12.1655 11.9325 12.3448 11.7915 12.471 11.6106C12.5972 11.4297 12.6646 11.2171 12.6646 10.9995C12.6646 10.7078 12.5436 10.428 12.3282 10.2217C12.1128 10.0154 11.8208 9.89956 11.5162 9.89956ZM16.1097 9.89956C15.8826 9.89956 15.6606 9.96407 15.4717 10.0849C15.2829 10.2058 15.1357 10.3776 15.0487 10.5786C14.9618 10.7796 14.9391 11.0007 14.9834 11.2141C15.0277 11.4275 15.1371 11.6235 15.2977 11.7773C15.4583 11.9311 15.6629 12.0359 15.8857 12.0783C16.1084 12.1208 16.3393 12.099 16.5492 12.0157C16.759 11.9325 16.9384 11.7915 17.0646 11.6106C17.1907 11.4297 17.2581 11.2171 17.2581 10.9995C17.2581 10.7078 17.1371 10.428 16.9217 10.2217C16.7064 10.0154 16.4143 9.89956 16.1097 9.89956ZM11.5162 0C10.0081 0 8.5148 0.284511 7.12152 0.837288C5.72824 1.39007 4.46227 2.20028 3.3959 3.22168C1.24227 5.28449 0.0323687 8.08226 0.0323687 10.9995C0.0223294 13.5394 0.9405 16.0027 2.62771 17.9622L0.330948 20.1621C0.171601 20.3168 0.0636576 20.5132 0.0207379 20.7266C-0.0221819 20.94 0.00184533 21.1607 0.0897877 21.3611C0.18517 21.559 0.339795 21.7253 0.534035 21.8389C0.728276 21.9524 0.953372 22.0082 1.18075 21.999H11.5162C14.5619 21.999 17.4828 20.8402 19.6365 18.7773C21.7901 16.7145 23 13.9168 23 10.9995C23 8.08226 21.7901 5.28449 19.6365 3.22168C17.4828 1.15887 14.5619 0 11.5162 0ZM11.5162 19.7991H3.94835L5.01635 18.7762C5.12485 18.6743 5.21118 18.5528 5.27031 18.4188C5.32945 18.2847 5.36023 18.1407 5.36086 17.9952C5.35654 17.7051 5.23272 17.4283 5.01635 17.2252C3.51264 15.7865 2.57623 13.893 2.36667 11.8671C2.15711 9.84132 2.68736 7.80856 3.86708 6.1152C5.04679 4.42185 6.80299 3.17265 8.83645 2.58046C10.8699 1.98826 13.0549 2.08969 15.019 2.86748C16.9831 3.64526 18.605 5.05128 19.6082 6.84598C20.6114 8.64068 20.9339 10.713 20.5208 12.7099C20.1077 14.7069 18.9845 16.5048 17.3425 17.7975C15.7006 19.0901 13.6416 19.7975 11.5162 19.7991Z" fill="#FF5959"/>
</svg>
