<svg width="18" height="18" viewBox="0 0 18 18" fill="none" xmlns="http://www.w3.org/2000/svg">
<path d="M8.80999 17.4035C13.556 17.4035 17.4035 13.5561 17.4035 8.81002C17.4035 4.06398 13.556 0.216553 8.80999 0.216553C4.06395 0.216553 0.216522 4.06398 0.216522 8.81002C0.216522 13.5561 4.06395 17.4035 8.80999 17.4035Z" fill="#F6D738"/>
<path d="M8.81001 16.1031C12.8379 16.1031 16.1032 12.8379 16.1032 8.80995C16.1032 4.78205 12.8379 1.51678 8.81001 1.51678C4.78211 1.51678 1.51685 4.78205 1.51685 8.80995C1.51685 12.8379 4.78211 16.1031 8.81001 16.1031Z" fill="#F3CC30"/>
<path d="M12.6257 2.58527C13.352 3.71914 13.7731 5.06725 13.7731 6.51371C13.7731 10.5416 10.5079 13.8069 6.47997 13.8069C5.08106 13.8069 3.77439 13.4127 2.66431 12.7298C3.96042 14.7534 6.22858 16.0946 8.81001 16.0946C12.8379 16.0946 16.1032 12.8293 16.1032 8.80139C16.1032 6.17238 14.7119 3.8686 12.6257 2.58527Z" fill="#EDBD31"/>
<path d="M2.79439 9.47733C2.79439 5.92174 5.67679 3.03937 9.23237 3.03937C11.3107 3.03937 13.1586 4.02444 14.3357 5.55281C13.224 3.62289 11.1403 2.32361 8.75314 2.32361C5.19756 2.32361 2.31519 5.20598 2.31519 8.76157C2.31519 10.2389 2.81312 11.5997 3.64984 12.6861C3.1057 11.7415 2.79439 10.6457 2.79439 9.47733Z" fill="#F7DB5E"/>
<path d="M9.41201 4.10278V5.0319C9.78487 5.09199 10.0899 5.21522 10.327 5.40165C10.564 5.58816 10.7899 5.87417 11.0048 6.25967L10.0805 6.77641C9.80231 6.27079 9.43886 6.01792 8.99016 6.01792C8.712 6.01792 8.48127 6.10014 8.29803 6.26443C8.11471 6.42878 8.02309 6.63418 8.02309 6.88067C8.02309 7.1051 8.09731 7.29153 8.2459 7.44005C8.39122 7.58542 8.68513 7.75767 9.1276 7.95674C9.50996 8.13056 9.82599 8.29411 10.0757 8.44736C10.3253 8.60069 10.5134 8.74836 10.6398 8.8906C10.9969 9.27621 11.1755 9.74231 11.1755 10.289C11.1755 10.8263 11.0143 11.3004 10.692 11.7111C10.3727 12.1188 9.94605 12.3938 9.41204 12.536V13.5173H8.58246V12.5644C7.96303 12.4633 7.49054 12.25 7.16507 11.9245C6.83957 11.599 6.59933 11.0965 6.44449 10.417L7.4874 10.1989C7.6296 10.6794 7.80337 11.0222 8.00885 11.2276C8.22373 11.4236 8.50971 11.5216 8.86687 11.5216C9.21446 11.5216 9.5052 11.4094 9.73913 11.185C9.96976 10.9638 10.0852 10.6777 10.0852 10.3269C10.0852 10.0141 9.98876 9.7628 9.796 9.57317C9.69799 9.48156 9.55341 9.37811 9.36227 9.2627C9.17102 9.14737 8.92688 9.02176 8.62983 8.88583C8.0167 8.6109 7.61374 8.35807 7.42101 8.12736C7.11446 7.78292 6.96121 7.37051 6.96121 6.89012C6.96121 6.66255 6.9975 6.45086 7.0702 6.25488C7.1429 6.05895 7.248 5.8812 7.38544 5.72157C7.52294 5.56201 7.69278 5.42376 7.89507 5.30678C8.09728 5.18994 8.32645 5.09821 8.58244 5.03185V4.10272H9.41201V4.10278Z" fill="#D49A34"/>
</svg>
