<svg width="38" height="38" viewBox="0 0 38 38" fill="none" xmlns="http://www.w3.org/2000/svg">
<circle cx="19" cy="19" r="19" fill="#FF5959"/>
<path d="M30.1429 10H24.0143C22.6991 10 21.4134 10.3813 20.3071 11.1006L19 11.9471L17.6929 11.1006C16.5877 10.3814 15.3006 9.99929 13.9857 10H7.85714C7.38304 10 7 10.3867 7 10.8654V26.2254C7 26.7041 7.38304 27.0908 7.85714 27.0908H13.9857C15.3009 27.0908 16.5866 27.4721 17.6929 28.1914L18.8821 28.9648C18.917 28.9865 18.9571 29 18.9973 29C19.0375 29 19.0777 28.9892 19.1125 28.9648L20.3018 28.1914C21.4107 27.4721 22.6991 27.0908 24.0143 27.0908H30.1429C30.617 27.0908 31 26.7041 31 26.2254V10.8654C31 10.3867 30.617 10 30.1429 10ZM13.9857 25.1438H8.92857V11.9471H13.9857C14.9339 11.9471 15.8554 12.2202 16.6509 12.7367L17.958 13.5831L18.1429 13.7048V26.1984C16.8679 25.5061 15.4429 25.1438 13.9857 25.1438ZM29.0714 25.1438H24.0143C22.5571 25.1438 21.1321 25.5061 19.8571 26.1984V13.7048L20.042 13.5831L21.3491 12.7367C22.1446 12.2202 23.0661 11.9471 24.0143 11.9471H29.0714V25.1438ZM15.917 15.4085H10.9402C10.8357 15.4085 10.75 15.5004 10.75 15.6113V16.8282C10.75 16.9391 10.8357 17.031 10.9402 17.031H15.9143C16.0188 17.031 16.1045 16.9391 16.1045 16.8282V15.6113C16.1071 15.5004 16.0214 15.4085 15.917 15.4085ZM21.8929 15.6113V16.8282C21.8929 16.9391 21.9786 17.031 22.083 17.031H27.0571C27.1616 17.031 27.2473 16.9391 27.2473 16.8282V15.6113C27.2473 15.5004 27.1616 15.4085 27.0571 15.4085H22.083C21.9786 15.4085 21.8929 15.5004 21.8929 15.6113ZM15.917 19.1944H10.9402C10.8357 19.1944 10.75 19.2864 10.75 19.3972V20.6141C10.75 20.725 10.8357 20.817 10.9402 20.817H15.9143C16.0188 20.817 16.1045 20.725 16.1045 20.6141V19.3972C16.1071 19.2864 16.0214 19.1944 15.917 19.1944ZM27.0598 19.1944H22.083C21.9786 19.1944 21.8929 19.2864 21.8929 19.3972V20.6141C21.8929 20.725 21.9786 20.817 22.083 20.817H27.0571C27.1616 20.817 27.2473 20.725 27.2473 20.6141V19.3972C27.25 19.2864 27.1643 19.1944 27.0598 19.1944Z" fill="white"/>
</svg>
