<svg width="37" height="37" viewBox="0 0 37 37" fill="none" xmlns="http://www.w3.org/2000/svg">
<circle cx="18.5" cy="18.5" r="18.5" fill="#FF5959" fill-opacity="0.24"/>
<path d="M21.5702 23.35V22.189H23.7392V28.75H22.4432V23.35H21.5702ZM24.9839 25.384C24.9839 24.346 25.1699 23.533 25.5419 22.945C25.9199 22.357 26.5439 22.063 27.4139 22.063C28.2839 22.063 28.9049 22.357 29.2769 22.945C29.6549 23.533 29.8439 24.346 29.8439 25.384C29.8439 26.428 29.6549 27.247 29.2769 27.841C28.9049 28.435 28.2839 28.732 27.4139 28.732C26.5439 28.732 25.9199 28.435 25.5419 27.841C25.1699 27.247 24.9839 26.428 24.9839 25.384ZM28.6019 25.384C28.6019 24.94 28.5719 24.568 28.5119 24.268C28.4579 23.962 28.3439 23.713 28.1699 23.521C28.0019 23.329 27.7499 23.233 27.4139 23.233C27.0779 23.233 26.8229 23.329 26.6489 23.521C26.4809 23.713 26.3669 23.962 26.3069 24.268C26.2529 24.568 26.2259 24.94 26.2259 25.384C26.2259 25.84 26.2529 26.224 26.3069 26.536C26.3609 26.842 26.4749 27.091 26.6489 27.283C26.8229 27.469 27.0779 27.562 27.4139 27.562C27.7499 27.562 28.0049 27.469 28.1789 27.283C28.3529 27.091 28.4669 26.842 28.5209 26.536C28.5749 26.224 28.6019 25.84 28.6019 25.384Z" fill="#FF0000"/>
<path d="M23.6981 20.8662C24.3552 20.5092 25.1074 20.306 25.9084 20.306H25.9111C25.9926 20.306 26.0306 20.2071 25.9708 20.1522C25.1378 19.3962 24.1862 18.7856 23.155 18.3454C23.1442 18.3399 23.1333 18.3372 23.1225 18.3317C24.8087 17.0933 25.9057 15.0806 25.9057 12.8098C25.9057 9.04792 22.8971 6 19.1852 6C15.4734 6 12.4675 9.04792 12.4675 12.8098C12.4675 15.0806 13.5645 17.0933 15.2535 18.3317C15.2426 18.3372 15.2317 18.3399 15.2209 18.3454C14.0071 18.8644 12.9183 19.6085 11.9815 20.5586C11.0501 21.4988 10.3086 22.6133 9.79837 23.8399C9.29635 25.0411 9.02541 26.3281 9.00007 27.632C8.99934 27.6613 9.00443 27.6904 9.01502 27.7177C9.02561 27.745 9.0415 27.7699 9.06174 27.7909C9.08198 27.8119 9.10618 27.8285 9.13289 27.8399C9.15961 27.8513 9.1883 27.8572 9.21729 27.8571H10.8438C10.9605 27.8571 11.0583 27.761 11.061 27.643C11.1153 25.5232 11.9543 23.5379 13.4396 22.0331C14.9738 20.4762 17.0157 19.6195 19.188 19.6195C20.7275 19.6195 22.2047 20.0506 23.4782 20.8579C23.5109 20.8787 23.5484 20.8904 23.587 20.8919C23.6257 20.8933 23.664 20.8844 23.6981 20.8662ZM19.188 17.5327C17.9443 17.5327 16.774 17.0412 15.8916 16.1487C15.4574 15.7108 15.1131 15.1903 14.8787 14.6173C14.6443 14.0442 14.5244 13.4299 14.5257 12.8098C14.5257 11.5494 15.0118 10.3632 15.8916 9.47078C16.7713 8.57837 17.9416 8.08686 19.188 8.08686C20.4343 8.08686 21.6019 8.57837 22.4844 9.47078C22.9186 9.90872 23.2628 10.4292 23.4972 11.0023C23.7316 11.5753 23.8515 12.1896 23.8502 12.8098C23.8502 14.0701 23.3641 15.2563 22.4844 16.1487C21.6019 17.0412 20.4316 17.5327 19.188 17.5327Z" fill="#FF0000"/>
</svg>
