<svg width="38" height="38" viewBox="0 0 38 38" fill="none" xmlns="http://www.w3.org/2000/svg">
<circle cx="19" cy="19" r="19" fill="#FF5959"/>
<path d="M21.1495 22.3177C22.2009 21.6285 22.8902 20.4369 22.8902 19.0818C22.8902 16.9439 21.1495 15.2032 19.0117 15.2032C16.8738 15.2032 15.1332 16.9439 15.1332 19.0818C15.1332 20.4252 15.8224 21.6168 16.8738 22.3177C14.5023 23.1939 12.8084 25.4603 12.8084 28.1355H13.8481C13.8481 25.285 16.1729 22.9603 19.0234 22.9603C21.8738 22.9603 24.1986 25.285 24.1986 28.1355H25.2383C25.215 25.4603 23.5093 23.1939 21.1495 22.3177ZM19.0117 21.9322C17.4463 21.9322 16.1729 20.6589 16.1729 19.0934C16.1729 17.528 17.4463 16.2546 19.0117 16.2546C20.5771 16.2546 21.8505 17.528 21.8505 19.0934C21.8505 20.6472 20.5771 21.9322 19.0117 21.9322Z" fill="white"/>
<path d="M26.3131 19.736C27.3645 19.0468 28.0537 17.8552 28.0537 16.5C28.0537 14.3622 26.3131 12.6215 24.1752 12.6215C23.1355 12.6215 22.2009 13.0304 21.5 13.6963C21.243 13.9416 21.021 14.222 20.8341 14.5257C21.1612 14.6542 21.465 14.8178 21.7453 15.0047C21.9322 14.7126 22.1659 14.444 22.4346 14.2337C22.9136 13.8598 23.5093 13.6379 24.1636 13.6379C25.729 13.6379 27.0023 14.9112 27.0023 16.4767C27.0023 17.7734 26.1262 18.8715 24.9229 19.2103C24.6776 19.2804 24.4206 19.3154 24.1519 19.3154C24.0584 19.3154 23.965 19.3154 23.8832 19.3038C23.8598 19.6776 23.8014 20.0397 23.7079 20.3785C23.8598 20.3668 24 20.3435 24.1519 20.3435C24.3622 20.3435 24.5724 20.3552 24.771 20.3785C27.3294 20.6823 29.3271 22.8668 29.3271 25.507H30.3668C30.3785 22.8785 28.6846 20.6005 26.3131 19.736Z" fill="white"/>
<path d="M13.8365 20.3785C13.9883 20.3785 14.1285 20.4019 14.2804 20.4136C14.1869 20.0631 14.1285 19.7009 14.1051 19.3388C14.0117 19.3505 13.9299 19.3505 13.8365 19.3505C13.5678 19.3505 13.3108 19.3154 13.0654 19.2453C11.8738 18.9065 10.986 17.8084 10.986 16.5117C10.986 14.9463 12.2593 13.6729 13.8248 13.6729C14.479 13.6729 15.0748 13.8949 15.5537 14.2687C15.8341 14.479 16.0678 14.736 16.243 15.0397C16.5234 14.8411 16.8388 14.6893 17.1542 14.5608C16.9673 14.257 16.7453 13.9766 16.4883 13.7313C15.7874 13.0654 14.8528 12.6566 13.8131 12.6566C11.6752 12.6566 9.93458 14.3972 9.93458 16.5351C9.93458 17.8785 10.6238 19.0701 11.6752 19.771C9.30374 20.6472 7.60982 22.9136 7.60982 25.5888H8.64954C8.64954 22.9486 10.6355 20.764 13.2056 20.4603C13.4159 20.3902 13.6262 20.3785 13.8365 20.3785Z" fill="white"/>
<path d="M29.9346 16.1145C30.986 15.4252 31.6752 14.2336 31.6752 12.8785C31.6752 10.7407 29.9346 9 27.7967 9C26.757 9 25.8224 9.40888 25.1215 10.0748C24.8645 10.3201 24.6425 10.6005 24.4556 10.9042C24.7827 11.0327 25.0864 11.1963 25.3668 11.3832C25.5537 11.0911 25.7874 10.8224 26.0561 10.6122C26.535 10.2383 27.1308 10.0164 27.785 10.0164C29.3505 10.0164 30.6238 11.2897 30.6238 12.8551C30.6238 14 29.9463 14.9813 28.965 15.4369C29.0117 15.6822 29.035 15.9276 29.035 16.1963C29.035 16.4299 29.0117 16.6636 28.9766 16.8855C31.2547 17.4229 32.9603 19.4673 32.9603 21.9089H34C34 19.257 32.3061 16.9907 29.9346 16.1145Z" fill="white"/>
<path d="M8.96495 16.2196C8.96495 15.9626 8.98832 15.7056 9.03505 15.4603C8.05374 15.0164 7.37617 14.0234 7.37617 12.8785C7.37617 11.3131 8.64953 10.0397 10.215 10.0397C10.8692 10.0397 11.465 10.2617 11.9439 10.6355C12.2243 10.8458 12.4579 11.1028 12.6332 11.4066C12.9136 11.208 13.229 11.0561 13.5444 10.9276C13.3575 10.6238 13.1355 10.3435 12.8785 10.0981C12.1776 9.43226 11.243 9.02338 10.2033 9.02338C8.06542 9.02338 6.32477 10.764 6.32477 12.9019C6.32477 14.2453 7.01402 15.4369 8.06542 16.1379C5.69393 17.014 4 19.2804 4 21.9556H5.03972C5.03972 19.514 6.74533 17.4696 9.02337 16.9323C8.98832 16.6753 8.96495 16.4533 8.96495 16.2196Z" fill="white"/>
<path d="M19.0117 10.0397C20.3902 10.0397 21.535 11.0327 21.7921 12.3411C22.3528 12.0023 22.7617 11.9206 22.7617 11.9206C22.3294 10.2383 20.8108 9 19.0117 9C17.2009 9 15.6822 10.25 15.2617 11.9206C15.2617 11.9206 15.6706 12.0023 16.2313 12.3411C16.4766 11.0327 17.6215 10.0397 19.0117 10.0397Z" fill="white"/>
</svg>
