<svg width="20" height="20" viewBox="0 0 20 20" fill="none" xmlns="http://www.w3.org/2000/svg">
<path d="M15.7143 17.1428C15.7143 17.9006 15.4133 18.6273 14.8774 19.1631C14.3416 19.699 13.6149 20 12.8571 20H2.85714C2.09938 20 1.37266 19.699 0.836838 19.1631C0.30102 18.6273 0 17.9006 0 17.1428V7.1428C0 6.38503 0.30102 5.65831 0.836838 5.12249C1.37266 4.58666 2.09938 4.28564 2.85714 4.28564V5.71422C2.47826 5.71422 2.1149 5.86473 1.84699 6.13264C1.57908 6.40055 1.42857 6.76392 1.42857 7.1428V17.1428C1.42857 17.5217 1.57908 17.8851 1.84699 18.153C2.1149 18.4209 2.47826 18.5714 2.85714 18.5714H12.8571C13.236 18.5714 13.5994 18.4209 13.8673 18.153C14.1352 17.8851 14.2857 17.5217 14.2857 17.1428H15.7143Z" fill="#FF5959"/>
<path d="M7.14294 1.42858C6.76406 1.42858 6.4007 1.57909 6.13279 1.847C5.86488 2.11491 5.71437 2.47827 5.71437 2.85715V12.8572C5.71437 13.2361 5.86488 13.5994 6.13279 13.8673C6.4007 14.1353 6.76406 14.2858 7.14294 14.2858H17.1429C17.5218 14.2858 17.8852 14.1353 18.1531 13.8673C18.421 13.5994 18.5715 13.2361 18.5715 12.8572V2.85715C18.5715 2.47827 18.421 2.11491 18.1531 1.847C17.8852 1.57909 17.5218 1.42858 17.1429 1.42858H7.14294ZM7.14294 0H17.1429C17.9007 0 18.6274 0.301021 19.1632 0.836841C19.6991 1.37266 20.0001 2.09939 20.0001 2.85715V12.8572C20.0001 13.615 19.6991 14.3417 19.1632 14.8775C18.6274 15.4133 17.9007 15.7143 17.1429 15.7143H7.14294C6.38518 15.7143 5.65845 15.4133 5.12263 14.8775C4.58682 14.3417 4.2858 13.615 4.2858 12.8572V2.85715C4.2858 2.09939 4.58682 1.37266 5.12263 0.836841C5.65845 0.301021 6.38518 0 7.14294 0V0Z" fill="#FF5959"/>
</svg>
