<svg width="16" height="15" viewBox="0 0 16 15" fill="none" xmlns="http://www.w3.org/2000/svg">
<path d="M10.4 1.00166C10.4 0.138465 9.38079 -0.318335 8.736 0.254465L5.1416 3.44886C5.03189 3.5466 4.89013 3.60069 4.7432 3.60086H1.8C1.32261 3.60086 0.864773 3.7905 0.527207 4.12807C0.189642 4.46564 0 4.92347 0 5.40086V8.99846C0 9.47585 0.189642 9.93369 0.527207 10.2713C0.864773 10.6088 1.32261 10.7985 1.8 10.7985H4.744C4.89093 10.7986 5.03269 10.8527 5.1424 10.9505L8.73519 14.1457C9.37999 14.7185 10.4 14.2609 10.4 13.3985V1.00166ZM5.94 4.34566L9.2 1.44726V12.9529L5.94 10.0537C5.61055 9.76055 5.18496 9.59857 4.744 9.59846H1.8C1.64087 9.59846 1.48826 9.53525 1.37574 9.42272C1.26321 9.3102 1.2 9.15759 1.2 8.99846V5.40166C1.2 5.24253 1.26321 5.08992 1.37574 4.9774C1.48826 4.86488 1.64087 4.80166 1.8 4.80166H4.744C5.18496 4.80155 5.61055 4.63957 5.94 4.34646V4.34566Z" fill="#676FA3"/>
<path d="M13.5936 2.31925C13.6569 2.27239 13.7289 2.23847 13.8053 2.21942C13.8818 2.20038 13.9612 2.19658 14.0392 2.20824C14.1171 2.2199 14.192 2.2468 14.2595 2.2874C14.327 2.328 14.3859 2.3815 14.4328 2.44485C15.4529 3.82076 16.0025 5.48881 16 7.20165C16.0022 8.91457 15.4523 10.5826 14.432 11.9584C14.3353 12.0806 14.1949 12.1604 14.0405 12.181C13.886 12.2015 13.7296 12.1611 13.6044 12.0684C13.4792 11.9757 13.3949 11.838 13.3695 11.6843C13.344 11.5306 13.3793 11.373 13.468 11.2448C14.3353 10.0755 14.8025 8.65757 14.8 7.20165C14.8025 5.74572 14.3353 4.3278 13.468 3.15845C13.4211 3.0951 13.3872 3.02314 13.3681 2.94668C13.3491 2.87022 13.3453 2.79076 13.357 2.71283C13.3686 2.63491 13.3955 2.56004 13.4361 2.49251C13.4767 2.42498 13.5302 2.3661 13.5936 2.31925Z" fill="#676FA3"/>
<path d="M12.1144 4.29768C12.1836 4.2601 12.2596 4.23654 12.338 4.22835C12.4164 4.22016 12.4957 4.22749 12.5712 4.24992C12.6468 4.27236 12.7172 4.30946 12.7784 4.35911C12.8396 4.40876 12.8904 4.46998 12.928 4.53928C13.3568 5.33128 13.6 6.23927 13.6 7.20167C13.6013 8.13127 13.3703 9.04646 12.928 9.86407C12.8522 10.0041 12.7239 10.1083 12.5714 10.1538C12.4188 10.1992 12.2544 10.1822 12.1144 10.1065C11.9743 10.0307 11.8701 9.90245 11.8247 9.74988C11.7792 9.5973 11.7962 9.43291 11.872 9.29287C12.208 8.67127 12.4 7.96007 12.4 7.20167C12.4 6.44327 12.208 5.73207 11.872 5.11048C11.8344 5.04115 11.8109 4.9651 11.8028 4.88668C11.7946 4.80825 11.802 4.729 11.8245 4.65344C11.8471 4.57788 11.8842 4.5075 11.934 4.44631C11.9837 4.38513 12.045 4.33435 12.1144 4.29688V4.29768Z" fill="#676FA3"/>
</svg>
