<svg width="37" height="37" viewBox="0 0 37 37" fill="none" xmlns="http://www.w3.org/2000/svg">
<circle cx="18.5" cy="18.5" r="18.5" fill="#FF5959" fill-opacity="0.24"/>
<path d="M24.4083 23.917C24.4383 23.317 24.6483 22.855 25.0383 22.531C25.4343 22.201 25.9533 22.036 26.5953 22.036C27.0333 22.036 27.4083 22.114 27.7203 22.27C28.0323 22.42 28.2663 22.627 28.4223 22.891C28.5843 23.149 28.6653 23.443 28.6653 23.773C28.6653 24.151 28.5663 24.472 28.3683 24.736C28.1763 24.994 27.9453 25.168 27.6753 25.258V25.294C28.0233 25.402 28.2933 25.594 28.4853 25.87C28.6833 26.146 28.7823 26.5 28.7823 26.932C28.7823 27.292 28.6983 27.613 28.5303 27.895C28.3683 28.177 28.1253 28.399 27.8013 28.561C27.4833 28.717 27.0993 28.795 26.6493 28.795C25.9713 28.795 25.4193 28.624 24.9933 28.282C24.5673 27.94 24.3423 27.436 24.3183 26.77H25.5423C25.5543 27.064 25.6533 27.301 25.8393 27.481C26.0313 27.655 26.2923 27.742 26.6223 27.742C26.9283 27.742 27.1623 27.658 27.3243 27.49C27.4923 27.316 27.5763 27.094 27.5763 26.824C27.5763 26.464 27.4623 26.206 27.2343 26.05C27.0063 25.894 26.6523 25.816 26.1723 25.816H25.9113V24.781H26.1723C27.0243 24.781 27.4503 24.496 27.4503 23.926C27.4503 23.668 27.3723 23.467 27.2163 23.323C27.0663 23.179 26.8473 23.107 26.5593 23.107C26.2773 23.107 26.0583 23.185 25.9023 23.341C25.7523 23.491 25.6653 23.683 25.6413 23.917H24.4083Z" fill="#FF0000"/>
<path d="M23.6981 20.8662C24.3552 20.5092 25.1074 20.306 25.9084 20.306H25.9111C25.9926 20.306 26.0306 20.2071 25.9708 20.1522C25.1378 19.3962 24.1862 18.7856 23.155 18.3454C23.1442 18.3399 23.1333 18.3372 23.1225 18.3317C24.8087 17.0933 25.9057 15.0806 25.9057 12.8098C25.9057 9.04792 22.8971 6 19.1852 6C15.4734 6 12.4675 9.04792 12.4675 12.8098C12.4675 15.0806 13.5645 17.0933 15.2535 18.3317C15.2426 18.3372 15.2317 18.3399 15.2209 18.3454C14.0071 18.8644 12.9183 19.6085 11.9815 20.5586C11.0501 21.4988 10.3086 22.6133 9.79837 23.8399C9.29635 25.0411 9.02541 26.3281 9.00007 27.632C8.99934 27.6613 9.00443 27.6904 9.01502 27.7177C9.02561 27.745 9.0415 27.7699 9.06174 27.7909C9.08198 27.8119 9.10618 27.8285 9.13289 27.8399C9.15961 27.8513 9.1883 27.8572 9.21729 27.8571H10.8438C10.9605 27.8571 11.0583 27.761 11.061 27.643C11.1153 25.5232 11.9543 23.5379 13.4396 22.0331C14.9738 20.4762 17.0157 19.6195 19.188 19.6195C20.7275 19.6195 22.2047 20.0506 23.4782 20.8579C23.5109 20.8787 23.5484 20.8904 23.587 20.8919C23.6257 20.8933 23.664 20.8844 23.6981 20.8662ZM19.188 17.5327C17.9443 17.5327 16.774 17.0412 15.8916 16.1487C15.4574 15.7108 15.1131 15.1903 14.8787 14.6173C14.6443 14.0442 14.5244 13.4299 14.5257 12.8098C14.5257 11.5494 15.0118 10.3632 15.8916 9.47078C16.7713 8.57837 17.9416 8.08686 19.188 8.08686C20.4343 8.08686 21.6019 8.57837 22.4844 9.47078C22.9186 9.90872 23.2628 10.4292 23.4972 11.0023C23.7316 11.5753 23.8516 12.1896 23.8502 12.8098C23.8502 14.0701 23.3641 15.2563 22.4844 16.1487C21.6019 17.0412 20.4316 17.5327 19.188 17.5327Z" fill="#FF0000"/>
</svg>
