<svg width="38" height="38" viewBox="0 0 38 38" fill="none" xmlns="http://www.w3.org/2000/svg">
<circle cx="19" cy="19" r="19" fill="#FF5959"/>
<path d="M17.996 21.995C17.996 21.645 18.056 21.308 18.166 20.995H11.249C10.6525 20.995 10.0805 21.2319 9.65872 21.6537C9.23695 22.0755 9 22.6475 9 23.244V23.822C9 24.714 9.319 25.578 9.899 26.257C11.465 28.091 13.851 28.997 16.997 28.997C17.394 28.997 17.78 28.982 18.153 28.953C18.049 28.6443 17.9959 28.3207 17.996 27.995V27.46C17.675 27.484 17.341 27.496 16.996 27.496C14.258 27.496 12.292 26.75 11.038 25.283C10.6899 24.8754 10.4988 24.357 10.499 23.821V23.244C10.499 22.83 10.835 22.494 11.249 22.494H17.996V21.995ZM16.996 9C17.6526 9 18.3028 9.12933 18.9094 9.3806C19.516 9.63188 20.0672 10.0002 20.5315 10.4645C20.9958 10.9288 21.3641 11.48 21.6154 12.0866C21.8667 12.6932 21.996 13.3434 21.996 14C21.996 14.6566 21.8667 15.3068 21.6154 15.9134C21.3641 16.52 20.9958 17.0712 20.5315 17.5355C20.0672 17.9998 19.516 18.3681 18.9094 18.6194C18.3028 18.8707 17.6526 19 16.996 19C15.6699 19 14.3981 18.4732 13.4605 17.5355C12.5228 16.5979 11.996 15.3261 11.996 14C11.996 12.6739 12.5228 11.4021 13.4605 10.4645C14.3981 9.52678 15.6699 9 16.996 9ZM16.996 10.5C16.5364 10.5 16.0812 10.5905 15.6566 10.7664C15.232 10.9423 14.8461 11.2001 14.5211 11.5251C14.1961 11.8501 13.9383 12.236 13.7624 12.6606C13.5865 13.0852 13.496 13.5404 13.496 14C13.496 14.4596 13.5865 14.9148 13.7624 15.3394C13.9383 15.764 14.1961 16.1499 14.5211 16.4749C14.8461 16.7999 15.232 17.0577 15.6566 17.2336C16.0812 17.4095 16.5364 17.5 16.996 17.5C17.9243 17.5 18.8145 17.1313 19.4709 16.4749C20.1273 15.8185 20.496 14.9283 20.496 14C20.496 13.0717 20.1273 12.1815 19.4709 11.5251C18.8145 10.8687 17.9243 10.5 16.996 10.5ZM18.996 21.995C18.996 21.4646 19.2067 20.9559 19.5818 20.5808C19.9569 20.2057 20.4656 19.995 20.996 19.995H27.996C28.5264 19.995 29.0351 20.2057 29.4102 20.5808C29.7853 20.9559 29.996 21.4646 29.996 21.995V27.995C29.996 28.5254 29.7853 29.0341 29.4102 29.4092C29.0351 29.7843 28.5264 29.995 27.996 29.995H20.996C20.4656 29.995 19.9569 29.7843 19.5818 29.4092C19.2067 29.0341 18.996 28.5254 18.996 27.995V21.995ZM21.496 22.995C21.3634 22.995 21.2362 23.0477 21.1424 23.1414C21.0487 23.2352 20.996 23.3624 20.996 23.495C20.996 23.6276 21.0487 23.7548 21.1424 23.8486C21.2362 23.9423 21.3634 23.995 21.496 23.995H27.496C27.6286 23.995 27.7558 23.9423 27.8496 23.8486C27.9433 23.7548 27.996 23.6276 27.996 23.495C27.996 23.3624 27.9433 23.2352 27.8496 23.1414C27.7558 23.0477 27.6286 22.995 27.496 22.995H21.496ZM21.496 25.995C21.3634 25.995 21.2362 26.0477 21.1424 26.1414C21.0487 26.2352 20.996 26.3624 20.996 26.495C20.996 26.6276 21.0487 26.7548 21.1424 26.8486C21.2362 26.9423 21.3634 26.995 21.496 26.995H27.496C27.6286 26.995 27.7558 26.9423 27.8496 26.8486C27.9433 26.7548 27.996 26.6276 27.996 26.495C27.996 26.3624 27.9433 26.2352 27.8496 26.1414C27.7558 26.0477 27.6286 25.995 27.496 25.995H21.496Z" fill="white"/>
</svg>
