<svg width="20" height="22" viewBox="0 0 20 22" fill="none" xmlns="http://www.w3.org/2000/svg">
<path d="M15.5729 9.89227V12.1077H4.42708V9.89227H15.5729ZM17.7604 2.21546C18.3854 2.21546 18.9149 2.43013 19.349 2.85948C19.783 3.28884 20 3.81265 20 4.43091V19.7845C20 20.4028 19.783 20.9266 19.349 21.356C18.9149 21.7853 18.3854 22 17.7604 22H2.23958C1.61458 22 1.08507 21.7853 0.651042 21.356C0.217014 20.9266 0 20.4028 0 19.7845V4.43091C0 3.81265 0.217014 3.28884 0.651042 2.85948C1.08507 2.43013 1.61458 2.21546 2.23958 2.21546H3.33333V0H5.57292V2.21546H14.4271V0H16.6667V2.21546H17.7604ZM17.7604 19.7845V7.72834H2.23958V19.7845H17.7604ZM12.2396 14.3232V16.4871H4.42708V14.3232H12.2396Z" fill="#FF5959"/>
</svg>
