<svg width="37" height="37" viewBox="0 0 37 37" fill="none" xmlns="http://www.w3.org/2000/svg">
<circle cx="18.5" cy="18.5" r="18.5" fill="#FF5959" fill-opacity="0.24"/>
<path d="M27.6077 23.827C27.5477 23.575 27.4427 23.386 27.2927 23.26C27.1487 23.134 26.9387 23.071 26.6627 23.071C26.2487 23.071 25.9427 23.239 25.7447 23.575C25.5527 23.905 25.4537 24.445 25.4477 25.195C25.5917 24.955 25.8017 24.769 26.0777 24.637C26.3537 24.499 26.6537 24.43 26.9777 24.43C27.3677 24.43 27.7127 24.514 28.0127 24.682C28.3127 24.85 28.5467 25.096 28.7147 25.42C28.8827 25.738 28.9667 26.122 28.9667 26.572C28.9667 26.998 28.8797 27.379 28.7057 27.715C28.5377 28.045 28.2887 28.303 27.9587 28.489C27.6287 28.675 27.2357 28.768 26.7797 28.768C26.1557 28.768 25.6637 28.63 25.3037 28.354C24.9497 28.078 24.7007 27.694 24.5567 27.202C24.4187 26.704 24.3497 26.092 24.3497 25.366C24.3497 24.268 24.5387 23.44 24.9167 22.882C25.2947 22.318 25.8917 22.036 26.7077 22.036C27.3377 22.036 27.8267 22.207 28.1747 22.549C28.5227 22.891 28.7237 23.317 28.7777 23.827H27.6077ZM26.6897 25.465C26.3717 25.465 26.1047 25.558 25.8887 25.744C25.6727 25.93 25.5647 26.2 25.5647 26.554C25.5647 26.908 25.6637 27.187 25.8617 27.391C26.0657 27.595 26.3507 27.697 26.7167 27.697C27.0407 27.697 27.2957 27.598 27.4817 27.4C27.6737 27.202 27.7697 26.935 27.7697 26.599C27.7697 26.251 27.6767 25.975 27.4907 25.771C27.3107 25.567 27.0437 25.465 26.6897 25.465Z" fill="#FF0000"/>
<path d="M23.6981 20.8662C24.3552 20.5092 25.1074 20.306 25.9084 20.306H25.9111C25.9926 20.306 26.0306 20.2071 25.9708 20.1522C25.1378 19.3962 24.1862 18.7856 23.155 18.3454C23.1442 18.3399 23.1333 18.3372 23.1225 18.3317C24.8087 17.0933 25.9057 15.0806 25.9057 12.8098C25.9057 9.04792 22.8971 6 19.1852 6C15.4734 6 12.4675 9.04792 12.4675 12.8098C12.4675 15.0806 13.5645 17.0933 15.2535 18.3317C15.2426 18.3372 15.2317 18.3399 15.2209 18.3454C14.0071 18.8644 12.9183 19.6085 11.9815 20.5586C11.0501 21.4988 10.3086 22.6133 9.79837 23.8399C9.29635 25.0411 9.02541 26.3281 9.00007 27.632C8.99934 27.6613 9.00443 27.6904 9.01502 27.7177C9.02561 27.745 9.0415 27.7699 9.06174 27.7909C9.08198 27.8119 9.10618 27.8285 9.13289 27.8399C9.15961 27.8513 9.1883 27.8572 9.21729 27.8571H10.8438C10.9605 27.8571 11.0583 27.761 11.061 27.643C11.1153 25.5232 11.9543 23.5379 13.4396 22.0331C14.9738 20.4762 17.0157 19.6195 19.188 19.6195C20.7275 19.6195 22.2047 20.0506 23.4782 20.8579C23.5109 20.8787 23.5484 20.8904 23.587 20.8919C23.6257 20.8933 23.664 20.8844 23.6981 20.8662ZM19.188 17.5327C17.9443 17.5327 16.774 17.0412 15.8916 16.1487C15.4574 15.7108 15.1131 15.1903 14.8787 14.6173C14.6443 14.0442 14.5244 13.4299 14.5257 12.8098C14.5257 11.5494 15.0118 10.3632 15.8916 9.47078C16.7713 8.57837 17.9416 8.08686 19.188 8.08686C20.4343 8.08686 21.6019 8.57837 22.4844 9.47078C22.9186 9.90872 23.2628 10.4292 23.4972 11.0023C23.7316 11.5753 23.8515 12.1896 23.8502 12.8098C23.8502 14.0701 23.3641 15.2563 22.4844 16.1487C21.6019 17.0412 20.4316 17.5327 19.188 17.5327Z" fill="#FF0000"/>
</svg>
