<svg width="38" height="38" viewBox="0 0 38 38" fill="none" xmlns="http://www.w3.org/2000/svg">
<circle cx="19" cy="19" r="19" fill="#00E676" fill-opacity="0.2"/>
<path d="M27.534 10.5027C25.3106 8.23247 22.237 7 19.0981 7C12.4279 7 7.06544 12.3838 7.13078 18.9351C7.13078 21.0108 7.71933 23.0217 8.70032 24.8378L7 31L13.3433 29.3784C15.109 30.3514 17.0707 30.8055 19.0327 30.8055C25.6376 30.8055 31 25.4216 31 18.8704C31 15.6919 29.7574 12.7081 27.534 10.5027ZM19.0981 28.7947C17.3324 28.7947 15.5667 28.3407 14.0626 27.4326L13.6703 27.238L9.87742 28.2109L10.8583 24.5137L10.5968 24.1244C7.71933 19.5191 9.09265 13.4216 13.8011 10.5675C18.5095 7.7135 24.5913 9.07569 27.4687 13.746C30.346 18.4162 28.9727 24.4487 24.2644 27.3028C22.7602 28.2757 20.9292 28.7947 19.0981 28.7947ZM24.8528 21.5948L24.1335 21.2704C24.1335 21.2704 23.0872 20.8163 22.4333 20.492C22.3678 20.492 22.3025 20.4271 22.237 20.4271C22.0408 20.4271 21.91 20.492 21.7793 20.5569C21.7793 20.5569 21.7139 20.6217 20.7984 21.6596C20.7329 21.7893 20.6022 21.8542 20.4714 21.8542H20.4059C20.3406 21.8542 20.2098 21.7893 20.1444 21.7245L19.8174 21.5948C19.0981 21.2704 18.4442 20.8812 17.921 20.3623C17.7902 20.2326 17.594 20.1028 17.4632 19.9731C17.0054 19.5191 16.5476 19.0001 16.2207 18.4163L16.1553 18.2866C16.09 18.2217 16.09 18.1569 16.0245 18.0272C16.0245 17.8974 16.0245 17.7677 16.09 17.7028C16.09 17.7028 16.3515 17.3785 16.5476 17.1839C16.6785 17.0541 16.7438 16.8596 16.8746 16.7299C17.0054 16.5352 17.0708 16.2758 17.0054 16.0812C16.9401 15.7568 16.1553 14.0055 15.9592 13.6163C15.8283 13.4217 15.6976 13.3569 15.5014 13.292H14.7821C14.6512 13.292 14.5205 13.3569 14.3896 13.3569L14.3242 13.4217C14.1934 13.4866 14.0626 13.6163 13.9319 13.6811C13.8011 13.811 13.7356 13.9406 13.6049 14.0704C13.1471 14.6542 12.8855 15.3677 12.8855 16.0812C12.8855 16.6001 13.0163 17.119 13.2125 17.5731L13.278 17.7677C13.8665 19.0001 14.6512 20.1028 15.6976 21.0758L15.9592 21.3352C16.1553 21.5298 16.3515 21.6596 16.4823 21.8541C17.8556 23.0218 19.4251 23.865 21.1907 24.319C21.3869 24.3839 21.6485 24.3839 21.8447 24.4488H22.4986C22.8256 24.4488 23.2179 24.319 23.4796 24.1893C23.6757 24.0596 23.8065 24.0596 23.9373 23.9299L24.0681 23.8001C24.1989 23.6704 24.3297 23.6055 24.4605 23.4758C24.5913 23.3461 24.722 23.2164 24.7875 23.0866C24.9182 22.8271 24.9836 22.5028 25.049 22.1785V21.7245C25.049 21.7245 24.9836 21.6596 24.8528 21.5948Z" fill="#00E676"/>
</svg>
