<svg width="7" height="15" viewBox="0 0 7 15" fill="none" xmlns="http://www.w3.org/2000/svg">
<path d="M1.16146 7.24792e-05C1.31088 -0.000471115 1.45852 0.034852 1.59352 0.103448C1.72853 0.172044 1.84747 0.272169 1.9416 0.396465L6.77247 6.82443C6.91958 7.01612 7 7.25658 7 7.50472C7 7.75287 6.91958 7.99332 6.77247 8.18502L1.77157 14.613C1.6018 14.8318 1.35785 14.9693 1.09337 14.9955C0.828899 15.0216 0.56557 14.9341 0.361317 14.7523C0.157063 14.5704 0.0286164 14.3091 0.00423241 14.0258C-0.0201516 13.7425 0.0615239 13.4605 0.231293 13.2417L4.7021 7.49937L0.381321 1.75705C0.259016 1.59979 0.181325 1.40831 0.157441 1.20524C0.133557 1.00217 0.16448 0.796019 0.24655 0.611185C0.328621 0.426351 0.458404 0.270568 0.620543 0.162267C0.782683 0.0539656 0.970393 -0.00231838 1.16146 7.24792e-05Z" fill="#FF5959"/>
</svg>
