<svg width="24" height="24" viewBox="0 0 24 24" fill="none" xmlns="http://www.w3.org/2000/svg">
<path d="M6.6 8.09275C7.0164 7.63435 7.698 7.19995 8.7 7.19995C10.0824 7.19995 10.9728 8.15035 11.286 9.19315C11.5896 10.2096 11.406 11.4672 10.542 12.3348C10.2423 12.6228 9.92448 12.8914 9.5904 13.1388L9.5424 13.176C9.2064 13.4352 8.9064 13.6704 8.6424 13.932C8.3364 14.2392 8.0856 14.574 7.9404 15H10.5C10.7387 15 10.9676 15.0948 11.1364 15.2636C11.3052 15.4323 11.4 15.6613 11.4 15.9C11.4 16.1386 11.3052 16.3676 11.1364 16.5363C10.9676 16.7051 10.7387 16.8 10.5 16.8H6.9C6.6613 16.8 6.43238 16.7051 6.2636 16.5363C6.09482 16.3676 6 16.1386 6 15.9C6 14.4036 6.6288 13.4004 7.3728 12.6588C7.728 12.3036 8.1144 12.0048 8.4408 11.7516L8.4444 11.7492C8.7876 11.484 9.054 11.2776 9.2664 11.0652C9.5928 10.7364 9.7068 10.1952 9.5616 9.70915C9.4236 9.25195 9.1176 8.99995 8.7 8.99995C8.2764 8.99995 8.058 9.16435 7.932 9.30355C7.85828 9.38491 7.79829 9.47772 7.7544 9.57835V9.58195C7.68088 9.80919 7.5201 9.99791 7.30744 10.1066C7.09477 10.2153 6.84763 10.2351 6.6204 10.1616C6.39316 10.088 6.20443 9.92726 6.09574 9.71459C5.98704 9.50192 5.96728 9.25479 6.0408 9.02755L6.0828 8.91235C6.20609 8.61136 6.38068 8.33405 6.5988 8.09275H6.6Z" fill="#FF5959"/>
<path d="M13.5 7.19995C13.7387 7.19995 13.9676 7.29477 14.1364 7.46356C14.3052 7.63234 14.4 7.86126 14.4 8.09995V11.4H16.2V8.09995C16.2 7.86126 16.2948 7.63234 16.4636 7.46356C16.6324 7.29477 16.8613 7.19995 17.1 7.19995C17.3387 7.19995 17.5676 7.29477 17.7364 7.46356C17.9052 7.63234 18 7.86126 18 8.09995V15.864C18 16.1026 17.9052 16.3316 17.7364 16.5003C17.5676 16.6691 17.3387 16.764 17.1 16.764C16.8613 16.764 16.6324 16.6691 16.4636 16.5003C16.2948 16.3316 16.2 16.1026 16.2 15.864V13.2H13.5C13.2613 13.2 13.0324 13.1051 12.8636 12.9363C12.6948 12.7676 12.6 12.5386 12.6 12.3V8.09995C12.6 7.86126 12.6948 7.63234 12.8636 7.46356C13.0324 7.29477 13.2613 7.19995 13.5 7.19995Z" fill="#FF5959"/>
<path d="M24 12C24 5.3724 18.6276 0 12 0C5.3724 0 0 5.3724 0 12C0 18.6276 5.3724 24 12 24C18.6276 24 24 18.6276 24 12ZM1.8 12C1.8 9.29479 2.87464 6.70038 4.78751 4.78751C6.70038 2.87464 9.29479 1.8 12 1.8C14.7052 1.8 17.2996 2.87464 19.2125 4.78751C21.1254 6.70038 22.2 9.29479 22.2 12C22.2 14.7052 21.1254 17.2996 19.2125 19.2125C17.2996 21.1254 14.7052 22.2 12 22.2C9.29479 22.2 6.70038 21.1254 4.78751 19.2125C2.87464 17.2996 1.8 14.7052 1.8 12Z" fill="#FF5959"/>
</svg>
