<svg width="17" height="16" viewBox="0 0 17 16" fill="none" xmlns="http://www.w3.org/2000/svg">
<path d="M8.50037 1.38535C7.57168 0.494479 6.35609 4.13947e-05 5.09447 0C4.42671 0.00072531 3.76567 0.13921 3.1494 0.407486C2.53314 0.675761 1.97381 1.06853 1.50361 1.56319C-0.501914 3.66433 -0.501062 6.95076 1.50532 9.04301L7.75459 15.5625C7.89948 15.8284 8.17905 16 8.50037 16C8.63231 15.9987 8.76211 15.9651 8.87935 15.9019C8.99658 15.8387 9.09799 15.7478 9.17542 15.6363L15.4954 9.04301C17.5018 6.94987 17.5018 3.66433 15.4937 1.55963C15.0238 1.06588 14.4649 0.673911 13.8492 0.406254C13.2336 0.138597 12.5733 0.000533161 11.9063 0C10.6447 0.000215146 9.42916 0.494629 8.50037 1.38535V1.38535ZM14.2885 2.81694C15.6207 4.21385 15.6216 6.39591 14.2902 7.78571L8.50037 13.8259L2.71051 7.78571C1.37917 6.39591 1.38003 4.21385 2.7088 2.8205C3.35657 2.14827 4.20379 1.77837 5.09447 1.77837C5.98515 1.77837 6.82896 2.14827 7.47161 2.81872L7.89778 3.26331C7.97686 3.34596 8.07079 3.41152 8.17419 3.45626C8.27759 3.50099 8.38843 3.52402 8.50037 3.52402C8.61231 3.52402 8.72315 3.50099 8.82655 3.45626C8.92995 3.41152 9.02388 3.34596 9.10297 3.26331L9.52913 2.81872C10.8179 1.47694 13.0015 1.48049 14.2885 2.81694V2.81694Z" fill="#FF5959"/>
</svg>
