<svg width="12" height="11" viewBox="0 0 12 11" fill="none" xmlns="http://www.w3.org/2000/svg">
<path d="M6.00026 0.952429C5.34471 0.339955 4.48665 2.84589e-05 3.5961 0C3.12473 0.000498651 2.65812 0.0957072 2.22311 0.280146C1.7881 0.464585 1.39328 0.734614 1.06137 1.07469C-0.354293 2.51923 -0.353691 4.77865 1.06258 6.21707L5.47383 10.6992C5.5761 10.882 5.77344 11 6.00026 11C6.0934 10.9991 6.18502 10.976 6.26778 10.9326C6.35053 10.8891 6.42211 10.8266 6.47676 10.75L10.9379 6.21707C12.3542 4.77804 12.3542 2.51923 10.9367 1.07225C10.605 0.732793 10.2105 0.463314 9.77592 0.279299C9.34133 0.0952854 8.87524 0.000366548 8.40443 0C7.51389 0.000147913 6.65588 0.340058 6.00026 0.952429ZM10.086 1.93665C11.0264 2.89702 11.027 4.39719 10.0872 5.35267L6.00026 9.50534L1.9133 5.35267C0.973534 4.39719 0.974136 2.89702 1.9121 1.93909C2.36935 1.47694 2.96738 1.22263 3.5961 1.22263C4.22481 1.22263 4.82044 1.47694 5.27408 1.93787L5.5749 2.24353C5.63073 2.30034 5.69703 2.34542 5.77002 2.37618C5.84301 2.40693 5.92125 2.42276 6.00026 2.42276C6.07928 2.42276 6.15752 2.40693 6.23051 2.37618C6.3035 2.34542 6.3698 2.30034 6.42562 2.24353L6.72645 1.93787C7.63613 1.01539 9.17754 1.01784 10.086 1.93665Z" fill="white"/>
</svg>
