<svg width="16" height="14" viewBox="0 0 16 14" fill="none" xmlns="http://www.w3.org/2000/svg">
<path d="M9.33739 1.26358C6.76976 1.26358 4.6789 3.15402 4.6789 5.47554C4.6789 6.4841 5.07014 7.40876 5.72706 8.13433L2.01483 11.4907L2.68449 12.0962L6.39672 8.7398C7.19922 9.33375 8.2219 9.68749 9.33739 9.68749C11.905 9.68749 13.9959 7.79705 13.9959 5.47554C13.9959 3.15402 11.905 1.26358 9.33739 1.26358ZM9.33739 2.10597C11.401 2.10597 13.0642 3.60977 13.0642 5.47554C13.0642 7.3413 11.401 8.8451 9.33739 8.8451C7.27383 8.8451 5.6106 7.3413 5.6106 5.47554C5.6106 3.60977 7.27383 2.10597 9.33739 2.10597Z" fill="#242B32" fill-opacity="0.5"/>
</svg>
