<svg width="17" height="20" viewBox="0 0 17 20" fill="none" xmlns="http://www.w3.org/2000/svg">
<path d="M16.5152 3.57576C15.1418 3.20922 13.8001 2.73294 12.503 2.15152C11.2269 1.59795 9.99505 0.947566 8.81818 0.206061L8.48485 0L8.15757 0.212121C6.9807 0.953627 5.74882 1.60401 4.47273 2.15758C3.17351 2.73724 1.82979 3.21149 0.454545 3.57576L0 3.69091V8.74545C0 16.8606 8.2 19.897 8.27879 19.9273L8.48485 20L8.69091 19.9273C8.77576 19.9273 16.9697 16.8667 16.9697 8.74545V3.69091L16.5152 3.57576ZM15.7576 8.74545C15.7576 15.4121 9.69697 18.2061 8.48485 18.703C7.27273 18.2061 1.21212 15.4061 1.21212 8.74545V4.6303C2.49059 4.26277 3.74207 3.80713 4.95758 3.26667C6.17316 2.74121 7.35163 2.13375 8.48485 1.44848C9.61806 2.13375 10.7965 2.74121 12.0121 3.26667C13.2276 3.80713 14.4791 4.26277 15.7576 4.6303V8.74545Z" fill="black"/>
<path d="M4.16971 9.31516C4.05377 9.21587 3.90463 9.16398 3.7521 9.16988C3.59957 9.17577 3.45488 9.239 3.34695 9.34694C3.23901 9.45487 3.17578 9.59956 3.16989 9.75209C3.16399 9.90462 3.21588 10.0538 3.31517 10.1697L6.95153 13.8061L13.5758 7.43637C13.6915 7.32385 13.7578 7.16997 13.7601 7.00858C13.7623 6.84718 13.7004 6.69149 13.5879 6.57576C13.4754 6.46003 13.3215 6.39374 13.1601 6.39146C12.9987 6.38919 12.843 6.45112 12.7273 6.56364L6.98789 12.1333L4.16971 9.31516Z" fill="black"/>
</svg>
