<svg width="66" height="66" viewBox="0 0 66 66" fill="none" xmlns="http://www.w3.org/2000/svg">
<path d="M33 66C51.2254 66 66 51.2254 66 33C66 14.7746 51.2254 0 33 0C14.7746 0 0 14.7746 0 33C0 51.2254 14.7746 66 33 66Z" fill="#F6D738"/>
<path d="M33 61.0067C48.4677 61.0067 61.0067 48.4677 61.0067 33C61.0067 17.5324 48.4677 4.99338 33 4.99338C17.5324 4.99338 4.99335 17.5324 4.99335 33C4.99335 48.4677 17.5324 61.0067 33 61.0067Z" fill="#F3CC30"/>
<path d="M47.6528 9.09622C50.4418 13.4505 52.0591 18.6274 52.0591 24.182C52.0591 39.6495 39.52 52.1886 24.0524 52.1886C18.6804 52.1886 13.6627 50.675 9.39978 48.0527C14.377 55.8233 23.087 60.9737 33 60.9737C48.4676 60.9737 61.0067 48.4346 61.0067 32.9669C61.0067 22.8712 55.6641 14.0244 47.6528 9.09622Z" fill="#EDBD31"/>
<path d="M9.89941 35.5626C9.89941 21.9087 20.9682 10.8401 34.6221 10.8401C42.603 10.8401 49.6993 14.6229 54.2195 20.492C49.9504 13.0809 41.9488 8.09146 32.7818 8.09146C19.1279 8.09146 8.0592 19.1601 8.0592 32.814C8.0592 38.487 9.97133 43.7127 13.1844 47.8847C11.0949 44.2572 9.89941 40.0495 9.89941 35.5626Z" fill="#F7DB5E"/>
<path d="M35.3119 14.9235V18.4915C36.7437 18.7222 37.9151 19.1954 38.8254 19.9114C39.7355 20.6276 40.6031 21.7259 41.4284 23.2063L37.8788 25.1906C36.8106 23.249 35.415 22.2779 33.6919 22.2779C32.6237 22.2779 31.7377 22.5937 31.034 23.2245C30.3301 23.8557 29.9782 24.6444 29.9782 25.591C29.9782 26.4528 30.2632 27.1688 30.8338 27.7391C31.3919 28.2973 32.5205 28.9588 34.2197 29.7232C35.688 30.3907 36.9016 31.0188 37.8605 31.6073C38.819 32.1961 39.5413 32.7632 40.0267 33.3093C41.398 34.7901 42.0839 36.58 42.0839 38.6795C42.0839 40.7428 41.4649 42.5633 40.2272 44.1406C39.0011 45.7062 37.3627 46.762 35.312 47.3083V51.0764H32.1263V47.4173C29.7476 47.0288 27.9332 46.21 26.6833 44.96C25.4334 43.7101 24.5108 41.7804 23.9162 39.1711L27.9211 38.3336C28.4672 40.1784 29.1345 41.4951 29.9236 42.2839C30.7487 43.0365 31.8469 43.4125 33.2185 43.4125C34.5532 43.4125 35.6697 42.9818 36.568 42.1201C37.4537 41.2707 37.897 40.1722 37.897 38.8251C37.897 37.6236 37.5267 36.6587 36.7864 35.9305C36.4101 35.5787 35.8548 35.1815 35.1208 34.7383C34.3864 34.2954 33.4489 33.813 32.3082 33.2911C29.9537 32.2353 28.4063 31.2644 27.6661 30.3784C26.489 29.0557 25.9005 27.472 25.9005 25.6273C25.9005 24.7534 26.0398 23.9405 26.319 23.1879C26.5982 22.4355 27.0018 21.7529 27.5296 21.1399C28.0576 20.5272 28.7098 19.9963 29.4866 19.5471C30.2631 19.0984 31.1432 18.7461 32.1262 18.4913V14.9233H35.3119V14.9235Z" fill="#D49A34"/>
</svg>
