<svg width="28" height="29" viewBox="0 0 28 29" fill="none" xmlns="http://www.w3.org/2000/svg">
<path d="M14.2994 1.7625C14.7734 1.7625 15.2281 1.94819 15.5633 2.27872C15.8985 2.60926 16.0868 3.05755 16.0868 3.525V24.675C16.0868 25.1424 15.8985 25.5907 15.5633 25.9213C15.2281 26.2518 14.7734 26.4375 14.2994 26.4375H3.57485C3.10079 26.4375 2.64615 26.2518 2.31095 25.9213C1.97574 25.5907 1.78742 25.1424 1.78742 24.675V3.525C1.78742 3.05755 1.97574 2.60926 2.31095 2.27872C2.64615 1.94819 3.10079 1.7625 3.57485 1.7625H14.2994ZM3.57485 0C2.62674 0 1.71746 0.371383 1.04705 1.03245C0.376634 1.69351 0 2.59011 0 3.525V24.675C0 25.6099 0.376634 26.5065 1.04705 27.1675C1.71746 27.8286 2.62674 28.2 3.57485 28.2H14.2994C15.2475 28.2 16.1568 27.8286 16.8272 27.1675C17.4976 26.5065 17.8742 25.6099 17.8742 24.675V3.525C17.8742 2.59011 17.4976 1.69351 16.8272 1.03245C16.1568 0.371383 15.2475 0 14.2994 0L3.57485 0Z" fill="#676FA3"/>
<path d="M8.93708 24.675C9.41114 24.675 9.86577 24.4893 10.201 24.1588C10.5362 23.8282 10.7245 23.3799 10.7245 22.9125C10.7245 22.445 10.5362 21.9968 10.201 21.6662C9.86577 21.3357 9.41114 21.15 8.93708 21.15C8.46303 21.15 8.00839 21.3357 7.67318 21.6662C7.33798 21.9968 7.14966 22.445 7.14966 22.9125C7.14966 23.3799 7.33798 23.8282 7.67318 24.1588C8.00839 24.4893 8.46303 24.675 8.93708 24.675Z" fill="#676FA3"/>
<ellipse cx="18.4892" cy="6.172" rx="8.28362" ry="6.05045" fill="white"/>
<path d="M18.1824 0.121552C12.7597 0.121552 8.36475 3.64216 8.36475 7.98714C8.36475 9.86278 9.18544 11.5796 10.5507 12.9296C10.0713 14.8355 8.46829 16.5334 8.44912 16.5523C8.36475 16.6393 8.34174 16.7679 8.39159 16.8813C8.44145 16.9947 8.54883 17.0628 8.67155 17.0628C11.2142 17.0628 13.1202 15.8603 14.0636 15.1191C15.3176 15.5842 16.7097 15.8527 18.1824 15.8527C23.6051 15.8527 28 12.3321 28 7.98714C28 3.64216 23.6051 0.121552 18.1824 0.121552ZM13.2812 10.4073H12.8134C12.6446 10.4073 12.5066 10.2712 12.5066 10.1048V9.49975C12.5066 9.33336 12.6446 9.19723 12.8134 9.19723H13.2851C13.5152 9.19723 13.6839 9.06487 13.6839 8.94765C13.6839 8.89849 13.6532 8.84555 13.6034 8.80395L12.7635 8.09302C12.4375 7.82075 12.2534 7.43125 12.2534 7.03041C12.2534 6.22494 12.9821 5.57074 13.8795 5.57074H14.3474C14.5161 5.57074 14.6542 5.70687 14.6542 5.87326V6.47831C14.6542 6.64469 14.5161 6.78083 14.3474 6.78083H13.8757C13.6456 6.78083 13.4768 6.91318 13.4768 7.03041C13.4768 7.07957 13.5075 7.13251 13.5573 7.17411L14.3972 7.88504C14.7232 8.15731 14.9073 8.5468 14.9073 8.94765C14.9111 9.75311 14.1786 10.4073 13.2812 10.4073ZM20.6368 10.1048C20.6368 10.2712 20.4987 10.4073 20.33 10.4073H19.7164C19.5476 10.4073 19.4096 10.2712 19.4096 10.1048V7.52579L18.4585 9.63589C18.3473 9.859 18.0213 9.859 17.9101 9.63589L16.9552 7.52579V10.1048C16.9552 10.2712 16.8171 10.4073 16.6484 10.4073H16.0348C15.866 10.4073 15.728 10.2712 15.728 10.1048V6.172C15.728 5.83923 16.0041 5.56696 16.3416 5.56696H16.9552C17.1891 5.56696 17.4 5.69553 17.5036 5.89973L18.1824 7.23839L18.8612 5.89973C18.9647 5.69553 19.1795 5.56696 19.4096 5.56696H20.0232C20.3607 5.56696 20.6368 5.83923 20.6368 6.172V10.1048ZM22.4891 10.4073H22.0174C21.8486 10.4073 21.7106 10.2712 21.7106 10.1048V9.49975C21.7106 9.33336 21.8486 9.19723 22.0174 9.19723H22.4891C22.7192 9.19723 22.8879 9.06487 22.8879 8.94765C22.8879 8.89849 22.8572 8.84555 22.8074 8.80395L21.9675 8.09302C21.6415 7.82075 21.4575 7.43125 21.4575 7.03041C21.4575 6.22494 22.1861 5.57074 23.0835 5.57074H23.5514C23.7201 5.57074 23.8582 5.70687 23.8582 5.87326V6.47831C23.8582 6.64469 23.7201 6.78083 23.5514 6.78083H23.0797C22.8496 6.78083 22.6808 6.91318 22.6808 7.03041C22.6808 7.07957 22.7115 7.13251 22.7614 7.17411L23.6012 7.88504C23.9272 8.15731 24.1113 8.5468 24.1113 8.94765C24.1151 9.75311 23.3865 10.4073 22.4891 10.4073Z" fill="#676FA3"/>
</svg>
