<svg width="37" height="37" viewBox="0 0 37 37" fill="none" xmlns="http://www.w3.org/2000/svg">
<circle cx="18.5" cy="18.5" r="18.5" fill="#FF5959" fill-opacity="0.24"/>
<path d="M24.8961 27.328C25.4721 26.848 25.9311 26.449 26.2731 26.131C26.6151 25.807 26.9001 25.471 27.1281 25.123C27.3561 24.775 27.4701 24.433 27.4701 24.097C27.4701 23.791 27.3981 23.551 27.2541 23.377C27.1101 23.203 26.8881 23.116 26.5881 23.116C26.2881 23.116 26.0571 23.218 25.8951 23.422C25.7331 23.62 25.6491 23.893 25.6431 24.241H24.4191C24.4431 23.521 24.6561 22.975 25.0581 22.603C25.4661 22.231 25.9821 22.045 26.6061 22.045C27.2901 22.045 27.8151 22.228 28.1811 22.594C28.5471 22.954 28.7301 23.431 28.7301 24.025C28.7301 24.493 28.6041 24.94 28.3522 25.366C28.1001 25.792 27.8121 26.164 27.4881 26.482C27.1641 26.794 26.7411 27.172 26.2191 27.616H28.8742V28.66H24.4281V27.724L24.8961 27.328Z" fill="#FF0000"/>
<path d="M23.6981 20.8662C24.3552 20.5092 25.1074 20.306 25.9084 20.306H25.9111C25.9926 20.306 26.0306 20.2071 25.9708 20.1522C25.1378 19.3962 24.1862 18.7856 23.155 18.3454C23.1442 18.3399 23.1333 18.3372 23.1225 18.3317C24.8087 17.0933 25.9057 15.0806 25.9057 12.8098C25.9057 9.04792 22.8971 6 19.1852 6C15.4734 6 12.4675 9.04792 12.4675 12.8098C12.4675 15.0806 13.5645 17.0933 15.2535 18.3317C15.2426 18.3372 15.2317 18.3399 15.2209 18.3454C14.0071 18.8644 12.9183 19.6085 11.9815 20.5586C11.0501 21.4988 10.3086 22.6133 9.79837 23.8399C9.29635 25.0411 9.02541 26.3281 9.00007 27.632C8.99934 27.6613 9.00443 27.6904 9.01502 27.7177C9.02561 27.745 9.0415 27.7699 9.06174 27.7909C9.08198 27.8119 9.10618 27.8285 9.13289 27.8399C9.15961 27.8513 9.1883 27.8572 9.21729 27.8571H10.8438C10.9605 27.8571 11.0583 27.761 11.061 27.643C11.1153 25.5232 11.9543 23.5379 13.4396 22.0331C14.9738 20.4762 17.0157 19.6195 19.188 19.6195C20.7275 19.6195 22.2047 20.0506 23.4782 20.8579C23.5109 20.8787 23.5484 20.8904 23.587 20.8919C23.6257 20.8933 23.664 20.8844 23.6981 20.8662ZM19.188 17.5327C17.9443 17.5327 16.774 17.0412 15.8916 16.1487C15.4574 15.7108 15.1131 15.1903 14.8787 14.6173C14.6443 14.0442 14.5244 13.4299 14.5257 12.8098C14.5257 11.5494 15.0118 10.3632 15.8916 9.47078C16.7713 8.57837 17.9416 8.08686 19.188 8.08686C20.4343 8.08686 21.6019 8.57837 22.4844 9.47078C22.9186 9.90872 23.2628 10.4292 23.4972 11.0023C23.7316 11.5753 23.8516 12.1896 23.8502 12.8098C23.8502 14.0701 23.3641 15.2563 22.4844 16.1487C21.6019 17.0412 20.4316 17.5327 19.188 17.5327Z" fill="#FF0000"/>
</svg>
