<svg width="16" height="26" viewBox="0 0 16 26" fill="none" xmlns="http://www.w3.org/2000/svg">
<path d="M12.8 1.57769C13.2243 1.57769 13.6313 1.74391 13.9314 2.03978C14.2314 2.33566 14.4 2.73695 14.4 3.15538V22.0877C14.4 22.5061 14.2314 22.9074 13.9314 23.2032C13.6313 23.4991 13.2243 23.6653 12.8 23.6653H3.2C2.77565 23.6653 2.36869 23.4991 2.06863 23.2032C1.76857 22.9074 1.6 22.5061 1.6 22.0877V3.15538C1.6 2.73695 1.76857 2.33566 2.06863 2.03978C2.36869 1.74391 2.77565 1.57769 3.2 1.57769H12.8ZM3.2 0C2.35131 0 1.53737 0.332441 0.937258 0.924189C0.337142 1.51594 0 2.31852 0 3.15538V22.0877C0 22.9245 0.337142 23.7271 0.937258 24.3188C1.53737 24.9106 2.35131 25.243 3.2 25.243H12.8C13.6487 25.243 14.4626 24.9106 15.0627 24.3188C15.6629 23.7271 16 22.9245 16 22.0877V3.15538C16 2.31852 15.6629 1.51594 15.0627 0.924189C14.4626 0.332441 13.6487 0 12.8 0L3.2 0Z" fill="black"/>
<path d="M7.99996 23.0876C8.42431 23.0876 8.83128 22.9214 9.13133 22.6256C9.43139 22.3297 9.59996 21.9284 9.59996 21.51C9.59996 21.0915 9.43139 20.6902 9.13133 20.3944C8.83128 20.0985 8.42431 19.9323 7.99996 19.9323C7.57562 19.9323 7.16865 20.0985 6.86859 20.3944C6.56853 20.6902 6.39996 21.0915 6.39996 21.51C6.39996 21.9284 6.56853 22.3297 6.86859 22.6256C7.16865 22.9214 7.57562 23.0876 7.99996 23.0876Z" fill="black"/>
</svg>
